<svg xmlns="http://www.w3.org/2000/svg" viewBox="0 0 335.52 335.69"><path d="M168.24,335.34h0a.7.7,0,0,1-.7-.7.94.94,0,0,1,1.8,0,.69.69,0,0,1-.69.7h0a.55.55,0,0,1-.18,0A.62.62,0,0,1,168.24,335.34ZM157.08,335l-.19,0a.7.7,0,0,1,.25-1.38.7.7,0,0,1,.64.7A.71.71,0,0,1,157.08,335Zm22.7,0a.7.7,0,0,1-.17-1.38.73.73,0,0,1,.88.68.7.7,0,0,1-.63.7ZM146,333.87a.58.58,0,0,1-.18,0,.7.7,0,0,1-.51-.85.71.71,0,0,1,1.4.17A.7.7,0,0,1,146,333.87Zm44.92-.05a.7.7,0,0,1-.68-.53.71.71,0,0,1,.52-.85.73.73,0,0,1,.88.68.7.7,0,0,1-.63.7ZM135,332h-.14a.71.71,0,0,1-.57-.69.73.73,0,0,1,.93-.66A.7.7,0,0,1,135,332Zm66.94-.08a.69.69,0,1,1,.24,0A.93.93,0,0,1,201.89,332Zm-78-2.52a.71.71,0,0,1-.51-.85.7.7,0,0,1,.85-.51Zm88.85-.08a.7.7,0,0,1-.68-.53.71.71,0,0,1,.51-.85.7.7,0,0,1,.85.48.69.69,0,0,1-.44.86l-.07,0A.5.5,0,0,1,212.75,329.35Zm-99.51-3.23a.69.69,0,0,1-.51-.85.7.7,0,0,1,.85-.51Zm110.17-.1a.7.7,0,0,1-.68-.53.71.71,0,0,1,.51-.85.7.7,0,0,1,.85.48.69.69,0,0,1-.44.86l-.07,0A.5.5,0,0,1,223.41,326ZM103,322.13a.62.62,0,0,1-.23,0,.76.76,0,0,1-.18-.09.7.7,0,1,1,.41.13ZM233.81,322a.69.69,0,0,1-.58-.31.69.69,0,0,1,.19-1l.18-.09a.7.7,0,0,1,.5,1.31A.72.72,0,0,1,233.81,322Zm-141-4.57a.67.67,0,0,1-.34-.09.7.7,0,0,1-.34-.84.69.69,0,0,1,.89-.44l.18.08a.71.71,0,0,1-.39,1.29Zm151.06-.15a.69.69,0,0,1-.66-.48.71.71,0,1,1,1.07.36l-.18.09A.91.91,0,0,1,243.91,317.27ZM83.05,312a.67.67,0,0,1-.34-.09.7.7,0,0,1,.55-1.29l.18.09a.7.7,0,0,1,.19,1A.69.69,0,0,1,83.05,312Zm170.63-.16a.69.69,0,0,1-.66-.48.71.71,0,0,1,1.26-.61.7.7,0,0,1-.2,1l-.18.09A.78.78,0,0,1,253.68,311.88ZM73.69,306a.76.76,0,0,1-.44-.13l-.12-.1a.7.7,0,0,1,1-1,.65.65,0,0,1,.15.93A.69.69,0,0,1,73.69,306Zm189.39-.18a.74.74,0,0,1-.5-.2.71.71,0,0,1,0-1,.58.58,0,0,1,.12-.1.7.7,0,0,1,.81,1.14A.7.7,0,0,1,263.08,305.85ZM64.7,299.39a.76.76,0,0,1-.44-.13l-.12-.09a.7.7,0,1,1,1-1,.64.64,0,0,1,.14.93A.67.67,0,0,1,64.7,299.39Zm207.35-.18a.71.71,0,0,1-.5-1.2l.12-.1a.7.7,0,1,1,.38,1.3Zm-215.93-7a.69.69,0,0,1-.39-.12.84.84,0,0,1-.21-.21.71.71,0,0,1,.2-1,.71.71,0,0,1,1,1A.69.69,0,0,1,56.12,292.17ZM280.56,292a.7.7,0,0,1-.58-1.09.64.64,0,0,1,.2-.2.69.69,0,0,1,1,.19.7.7,0,0,1-.12.92A.69.69,0,0,1,280.56,292ZM48.08,284.4a.7.7,0,0,1-.49-.21h0a.71.71,0,0,1,0-1,.71.71,0,0,1,1,1A.7.7,0,0,1,48.08,284.4Zm240.49-.2a.7.7,0,0,1-.49-.2.69.69,0,0,1,0-1,.7.7,0,0,1,1,1h0A.74.74,0,0,1,288.57,284.2Zm-248-8.08a.73.73,0,0,1-.53-.24A.71.71,0,0,1,40,275a.72.72,0,0,1,1-.2.8.8,0,0,1,.2.21.7.7,0,0,1-.19,1A.71.71,0,0,1,40.6,276.12Zm255.45-.21a.71.71,0,0,1-.58-.31.71.71,0,0,1,1-1,.72.72,0,0,1,.2,1,.8.8,0,0,1-.21.2A.69.69,0,0,1,296.05,275.91ZM33.67,267.36a.71.71,0,0,1-.5-1.21.71.71,0,0,1,1,0,.94.94,0,0,1,.09.12.7.7,0,0,1-.58,1.09Zm269.3-.23a.7.7,0,0,1-.49-.2.69.69,0,0,1,0-1,.64.64,0,0,1,.93-.15.75.75,0,0,1,.15,1,.94.94,0,0,1-.09.12A.74.74,0,0,1,303,267.13Zm-275.63-9a.7.7,0,0,1-.58-.32,1,1,0,0,1-.09-.18.7.7,0,1,1,1.06.38A.69.69,0,0,1,27.34,258.17Zm282-.25a.54.54,0,0,1-.22,0,.7.7,0,0,1-.45-.88,1,1,0,0,1,.09-.18.7.7,0,0,1,1-.2.71.71,0,0,1-.39,1.3ZM21.65,248.57a.72.72,0,0,1-.59-.31s-.06-.12-.09-.18a.71.71,0,0,1,.45-.89.7.7,0,0,1,.84.34.71.71,0,0,1-.22.92A.74.74,0,0,1,21.65,248.57ZM315,248.3a.62.62,0,0,1-.23,0,.71.71,0,0,1-.44-.89c0-.05.06-.12.09-.18a.7.7,0,1,1,.58,1.11ZM16.6,238.62a.71.71,0,0,1-.39-1.3.7.7,0,0,1,1,.2.61.61,0,0,1,.09.18.7.7,0,0,1-.44.88A.62.62,0,0,1,16.6,238.62ZM320,238.31a.68.68,0,0,1-.39-.11.71.71,0,0,1,.62-1.26.7.7,0,0,1,.44.88.61.61,0,0,1-.09.18A.68.68,0,0,1,320,238.31Zm-307.77-10a.7.7,0,0,1-.39-1.29.7.7,0,0,1,1,.19,1,1,0,0,1,.09.18.71.71,0,0,1-.45.89A.78.78,0,0,1,12.24,228.35ZM324.36,228a.71.71,0,0,1-.31-.08.7.7,0,0,1-.32-.94.67.67,0,0,1,.87-.4.73.73,0,0,1,.43.92s0,.08,0,.11A.72.72,0,0,1,324.36,228ZM8.57,217.8a.7.7,0,0,1-.66-.47.19.19,0,0,0,0-.07.71.71,0,0,1,.51-.85.7.7,0,0,1,.37,1.36A.69.69,0,0,1,8.57,217.8ZM328,217.44a.5.5,0,0,1-.17,0,.7.7,0,0,1-.51-.85l1.36.34A.7.7,0,0,1,328,217.44Zm.67-.49h0ZM5.63,207a.71.71,0,0,1-.67-.48.93.93,0,0,1,0-.24.7.7,0,0,1,1.39-.12.69.69,0,0,1-.46.8A.93.93,0,0,1,5.63,207Zm325.3-.37a.71.71,0,0,1-.7-.71.93.93,0,0,1,0-.23.7.7,0,1,1,.66.94ZM3.41,196.09a.7.7,0,0,1-.67-.48.91.91,0,0,1,0-.23.7.7,0,0,1,.7-.7.71.71,0,0,1,.69.57.72.72,0,0,1-.47.81A.83.83,0,0,1,3.41,196.09Zm329.72-.37a.7.7,0,0,1-.7-.71.62.62,0,0,1,0-.23.69.69,0,0,1,.88-.44.7.7,0,0,1,.47.8A.71.71,0,0,1,333.13,195.72ZM1.93,185a.71.71,0,0,1-.17-1.4.71.71,0,0,1,.85.51,1.24,1.24,0,0,1,0,.18A.7.7,0,0,1,1.93,185Zm332.65-.39a.52.52,0,0,1-.17,0,.71.71,0,0,1,.17-1.39h0a.7.7,0,0,1,.7.7.52.52,0,0,1,0,.18A.69.69,0,0,1,334.58,184.64ZM1.19,173.88a.7.7,0,0,1-.7-.7h0a.7.7,0,0,1,1.4,0A.71.71,0,0,1,1.19,173.88Zm334.11-.38a.7.7,0,0,1-.7-.7.7.7,0,0,1,.7-.71.7.7,0,0,1,.7.7h0A.7.7,0,0,1,335.3,173.5ZM1.18,162.71a.7.7,0,0,1-.7-.7h0a.7.7,0,0,1,1.4,0A.7.7,0,0,1,1.18,162.71Zm334.1-.38a.7.7,0,0,1,0-1.4.69.69,0,0,1,.7.69h0A.7.7,0,0,1,335.28,162.33ZM1.91,151.57h0a.7.7,0,0,1-.7-.7,1.1,1.1,0,0,1,0-.18.7.7,0,0,1,.85-.51.7.7,0,0,1,.53.76A.71.71,0,0,1,1.91,151.57Zm332.62-.38a.69.69,0,0,1-.68-.53.52.52,0,0,1,0-.18.7.7,0,0,1,.71-.7.71.71,0,0,1,.17,1.39A.52.52,0,0,1,334.53,151.19ZM3.37,140.5l-.22,0a.71.71,0,1,1,.93-.68A.93.93,0,0,1,4,140,.7.7,0,0,1,3.37,140.5ZM333,140.13a.71.71,0,0,1-.69-.58.7.7,0,0,1,.47-.8.71.71,0,0,1,.89.44.93.93,0,0,1,0,.24A.7.7,0,0,1,333,140.13ZM5.58,129.56a.57.57,0,0,1-.22,0,.71.71,0,1,1,.92-.68.93.93,0,0,1,0,.24A.72.72,0,0,1,5.58,129.56Zm325.22-.37a.71.71,0,0,1-.69-.58.71.71,0,0,1,1.36-.36.93.93,0,0,1,0,.24A.7.7,0,0,1,330.8,129.19Zm-3-10.77a.7.7,0,0,1-.19-1.38.68.68,0,0,1,.85.44.19.19,0,0,1,0,.07.7.7,0,0,1-.51.85ZM9.2,118.24l-1.36-.34a.7.7,0,1,1,1.36.34Zm3-10a.67.67,0,0,1-.24,0,.74.74,0,0,1-.43-.93.47.47,0,0,1,.05-.1.7.7,0,0,1,.94-.32.71.71,0,0,1,.31.94A.65.65,0,0,1,12.18,108.26Zm312-.38a.71.71,0,0,1-.63-.39.75.75,0,0,1,.42-.94.65.65,0,0,1,.85.36.69.69,0,0,1-.33.89A.71.71,0,0,1,324.17,107.88Zm-307.63-10a.57.57,0,0,1-.22,0,.68.68,0,0,1-.44-.88,1,1,0,0,1,.08-.18.71.71,0,0,1,1-.19.68.68,0,0,1,.24.87A.7.7,0,0,1,16.54,97.92Zm303.25-.3a.69.69,0,0,1-.58-.32.7.7,0,0,1-.09-.17.7.7,0,1,1,1.06.37A.69.69,0,0,1,319.79,97.62ZM21.59,87.94a.68.68,0,0,1-.39-.11A.71.71,0,0,1,21,86.9a.68.68,0,0,1,.84-.33.7.7,0,0,1,.45.88,1,1,0,0,1-.09.18A.71.71,0,0,1,21.59,87.94Zm293.15-.27a.7.7,0,0,1-.62-.37.7.7,0,0,1,1.2-.73,1,1,0,0,1,.08.18.69.69,0,0,1-.44.88A.57.57,0,0,1,314.74,87.67ZM27.28,78.33a.71.71,0,0,1-.39-.12A.71.71,0,1,1,28,77.84a1,1,0,0,1-.08.18A.72.72,0,0,1,27.28,78.33ZM309,78.08a.7.7,0,0,1-.62-.37.7.7,0,0,1,1.2-.73l.09.18a.71.71,0,0,1-.45.89A.83.83,0,0,1,309,78.08ZM33.6,69.18a.76.76,0,0,1-.42-.13A.75.75,0,0,1,33,68a.94.94,0,0,1,.09-.12.71.71,0,0,1,1,0,.69.69,0,0,1,0,1A.59.59,0,0,1,33.6,69.18Zm269.09-.29a.71.71,0,0,1-.49-.2l-.1-.12a.71.71,0,0,1,.2-1,.69.69,0,0,1,.95.16.72.72,0,0,1-.06.93A.74.74,0,0,1,302.69,68.89ZM40.54,60.35a.69.69,0,0,1-.39-.12.71.71,0,0,1-.2-1,.8.8,0,0,1,.21-.2.7.7,0,0,1,1,.19.71.71,0,0,1-.07.86A.67.67,0,0,1,40.54,60.35Zm255.22-.21a.71.71,0,0,1-.39-.12.76.76,0,0,1-.2-.2.69.69,0,0,1,.19-1,.7.7,0,0,1,.92.12.7.7,0,0,1-.52,1.17ZM48,52.06a.7.7,0,0,1-.5-1.19h0a.7.7,0,1,1,.49,1.2Zm240.23-.19a.7.7,0,0,1-.5-.21.7.7,0,0,1,1-1h0a.71.71,0,0,1-.49,1.2ZM56.05,44.3a.67.67,0,0,1-.58-.32.69.69,0,0,1,.12-.91.71.71,0,0,1,.86-.07.7.7,0,0,1,.19,1,.8.8,0,0,1-.2.21A.71.71,0,0,1,56.05,44.3Zm224.17-.19a.69.69,0,0,1-.47-.18.7.7,0,0,1-.12-.92.69.69,0,0,1,1-.19,1,1,0,0,1,.2.2.69.69,0,0,1-.19,1A.71.71,0,0,1,280.22,44.11Zm-215.65-7a.69.69,0,0,1-.58-.31.69.69,0,0,1,.16-1,.7.7,0,0,1,.93,1L65,37A.71.71,0,0,1,64.57,37.08Zm207.12-.17a.7.7,0,0,1-.5-.21.65.65,0,0,1-.15-.93.76.76,0,0,1,1-.16l.12.1a.71.71,0,0,1-.49,1.2ZM73.55,30.44a.72.72,0,0,1-.59-.31.71.71,0,0,1,1.09-.89.69.69,0,0,1,0,1l-.11.1A.79.79,0,0,1,73.55,30.44Zm189.14-.16a.74.74,0,0,1-.5-.2.65.65,0,0,1-.14-.94.75.75,0,0,1,1-.15,1,1,0,0,1,.11.1.69.69,0,0,1,0,1A.7.7,0,0,1,262.69,30.28ZM83,24.43a.7.7,0,0,1-.39-1.29l.18-.09a.7.7,0,0,1,.88.45.71.71,0,0,1-.33.84A.72.72,0,0,1,83,24.43Zm170.32-.16a.54.54,0,0,1-.22,0l-.18-.08a.7.7,0,0,1,.73-1.2.71.71,0,0,1,.33.84A.7.7,0,0,1,253.27,24.27ZM92.72,19.05a.69.69,0,0,1-.58-.31.71.71,0,0,1,.19-1l.18-.08a.7.7,0,1,1,.21,1.37Zm150.75-.15a.91.91,0,0,1-.23,0l-.18-.09a.7.7,0,0,1-.19-1,.71.71,0,0,1,1.26.61A.71.71,0,0,1,243.47,18.9ZM102.83,14.34a.72.72,0,1,1,.4-.13.61.61,0,0,1-.18.09A.78.78,0,0,1,102.83,14.34Zm130.49-.14a.7.7,0,1,1,.21-1.37.61.61,0,0,1,.18.09.69.69,0,0,1,.19,1A.69.69,0,0,1,233.32,14.2ZM113.24,10.31a.7.7,0,0,1-.67-.5A.69.69,0,0,1,113,9l.07,0a.71.71,0,0,1,.85.51.7.7,0,0,1-.51.85A.55.55,0,0,1,113.24,10.31Zm109.64-.12-.17,0,.34-1.36a.7.7,0,0,1-.17,1.38ZM123.91,7a.71.71,0,0,1-.24-1.37h.07a.7.7,0,0,1,.85.51.71.71,0,0,1-.51.85Zm88.3-.1-.17,0,.34-1.36a.7.7,0,0,1-.17,1.38ZM134.76,4.41A.7.7,0,0,1,134.53,3a.73.73,0,0,1,.94.67.71.71,0,0,1-.57.69Zm66.58-.08a.91.91,0,0,1-.23,0,.7.7,0,1,1,.93-.67A.7.7,0,0,1,201.34,4.33ZM145.77,2.55a.7.7,0,0,1-.7-.7.71.71,0,0,1,.63-.7A.7.7,0,0,1,146,2.53Zm44.56,0h-.08a.71.71,0,0,1-.64-.7.74.74,0,0,1,.89-.68A.71.71,0,0,1,191,2,.7.7,0,0,1,190.33,2.5ZM156.88,1.44a.7.7,0,0,1-.7-.71.7.7,0,0,1,.63-.69.69.69,0,0,1,.76.52.7.7,0,0,1-.51.85A.52.52,0,0,1,156.88,1.44Zm22.33,0h-.08a.7.7,0,0,1-.63-.69.73.73,0,0,1,.88-.68.69.69,0,0,1,.51.85A.69.69,0,0,1,179.21,1.41Zm-11.16-.35a.71.71,0,0,1-.7-.7.69.69,0,0,1,.69-.7h0a.7.7,0,1,1,0,1.4Z" transform="translate(-0.48 0.34)"/><path d="M167.35,321.94a.88.88,0,0,1,.89-.87h.36a.86.86,0,0,1,.88.87h0a.89.89,0,0,1-.88.88h0l-.18,0h0l-.18,0h0A.88.88,0,0,1,167.35,321.94Zm-10.32.48h0a.88.88,0,0,1-.81-.94h0a.87.87,0,0,1,.94-.8h0a.86.86,0,0,1,.81.92h0a.89.89,0,0,1-.88.83H157Zm21.84-.83a.87.87,0,0,1,.81-.94h0a.87.87,0,0,1,.94.8h0a.87.87,0,0,1-.81.94h-.06A.88.88,0,0,1,178.87,321.59Zm-33-.37a.86.86,0,0,1-.74-1h0a.87.87,0,0,1,1-.74h0a.86.86,0,0,1,.74,1h0a.84.84,0,0,1-.85.74h-.13Zm44.08-.79a.87.87,0,0,1,.72-1h0a.88.88,0,0,1,1,.74h0a.87.87,0,0,1-.73,1h-.13A.86.86,0,0,1,190,320.43Zm-55.11-1.21a.88.88,0,0,1-.68-1h0a.89.89,0,0,1,1-.67h0a.88.88,0,0,1,.68,1h0a.9.9,0,0,1-.86.68h-.19Zm66.07-.74a.9.9,0,0,1,.68-1.05h0a.87.87,0,0,1,1,.67h0a.86.86,0,0,1-.66,1h0l-.19,0h0A.89.89,0,0,1,200.93,318.48ZM124,316.43h0a.87.87,0,0,1-.59-1.08h0a.88.88,0,0,1,1.09-.59h0a.87.87,0,0,1,.59,1.08h0a.88.88,0,0,1-.84.63h0A1.07,1.07,0,0,1,124,316.43Zm87.74-.7a.87.87,0,0,1,.58-1.09h0a.89.89,0,0,1,1.1.59h0a.88.88,0,0,1-.59,1.09h0a.77.77,0,0,1-.26,0h0A.87.87,0,0,1,211.74,315.73Zm-98.38-2.88h0a.88.88,0,0,1-.5-1.12h0a.87.87,0,0,1,1.14-.52h0a.88.88,0,0,1,.5,1.13h0a.86.86,0,0,1-.81.56h0A1,1,0,0,1,113.36,312.85Zm109-.63a.88.88,0,0,1,.52-1.14h0a.88.88,0,0,1,1.13.51h0a.88.88,0,0,1-.5,1.13h0a.85.85,0,0,1-.31.06h0A.9.9,0,0,1,222.31,312.22ZM103,308.5h0a.88.88,0,0,1-.44-1.16h0a.88.88,0,0,1,1.17-.42h0a.87.87,0,0,1,.43,1.16h0a.89.89,0,0,1-.8.51h0A.74.74,0,0,1,103,308.5Zm129.58-.57a.86.86,0,0,1,.42-1.16h0a.87.87,0,0,1,1.16.43h0a.86.86,0,0,1-.42,1.15h0a.87.87,0,0,1-.38.08h0A.85.85,0,0,1,232.61,307.93ZM93,303.42h0a.88.88,0,0,1-.34-1.19h0a.87.87,0,0,1,1.19-.34h0a.88.88,0,0,1,.35,1.19h0a.89.89,0,0,1-.77.45h0A.91.91,0,0,1,93,303.42Zm149.53-.49a.9.9,0,0,1,.34-1.21h0a.89.89,0,0,1,1.19.35h0a.89.89,0,0,1-.34,1.2h0a1,1,0,0,1-.43.11h0A.88.88,0,0,1,242.55,302.93Zm-159.14-5.3a.9.9,0,0,1-.26-1.22h0a.89.89,0,0,1,1.22-.25h0a.88.88,0,0,1,.25,1.21h0a.87.87,0,0,1-.73.4h0A.9.9,0,0,1,83.41,297.63Zm168.7-.43a.88.88,0,0,1,.25-1.21h0a.89.89,0,0,1,1.22.26h0a.87.87,0,0,1-.25,1.2h0a.91.91,0,0,1-.48.14h0A.87.87,0,0,1,252.11,297.2Zm-177.86-6a.87.87,0,0,1-.16-1.23h0a.86.86,0,0,1,1.21-.17h0a.85.85,0,0,1,.17,1.22h0a.86.86,0,0,1-.7.35h0A.8.8,0,0,1,74.25,291.16Zm187-.35a.88.88,0,0,1,.17-1.23h0a.85.85,0,0,1,1.22.17h0a.89.89,0,0,1-.16,1.23h0a1,1,0,0,1-.53.18h0A.88.88,0,0,1,261.24,290.81ZM65.57,284a.85.85,0,0,1-.07-1.23h0a.87.87,0,0,1,1.23-.07h0a.88.88,0,0,1,.08,1.23h0a.88.88,0,0,1-.65.3h0A.83.83,0,0,1,65.57,284Zm204.32-.26a.85.85,0,0,1,.08-1.23h0a.85.85,0,0,1,1.23.07h0a.88.88,0,0,1-.07,1.23h0a.88.88,0,0,1-.59.22h0A.91.91,0,0,1,269.89,283.78ZM57.43,276.34h0a.88.88,0,0,1,0-1.25h0a.89.89,0,0,1,1.24,0h0a.9.9,0,0,1,0,1.24h0a.92.92,0,0,1-.62.26h0A.9.9,0,0,1,57.43,276.34ZM278,276.13a.87.87,0,0,1,0-1.23h0a.88.88,0,0,1,1.24,0h0a.87.87,0,0,1,0,1.24h0a.83.83,0,0,1-.61.26h0A.86.86,0,0,1,278,276.13Zm1.23,0h0ZM49.86,268.06h0a.88.88,0,0,1,.1-1.23h0a.87.87,0,0,1,1.23.1h0a.86.86,0,0,1-.09,1.23h0a.87.87,0,0,1-.56.21h0A.89.89,0,0,1,49.86,268.06Zm235.7-.13a.89.89,0,0,1-.1-1.23h0a.87.87,0,0,1,1.24-.1h0a.88.88,0,0,1,.11,1.24h0a.9.9,0,0,1-.66.31h0A.85.85,0,0,1,285.56,267.93ZM42.92,259.26A.89.89,0,0,1,43.1,258h0a.89.89,0,0,1,1.23.2h0a.88.88,0,0,1-.2,1.23h0a.87.87,0,0,1-.51.17h0A.84.84,0,0,1,42.92,259.26Zm249.6-.05a.88.88,0,0,1-.19-1.22h0a.88.88,0,0,1,1.22-.2h0a.9.9,0,0,1,.19,1.24h0v0h0a.86.86,0,0,1-.71.37h0A.89.89,0,0,1,292.52,259.21ZM36.61,250h0a.9.9,0,0,1,.28-1.22h0a.9.9,0,0,1,1.21.28h0a.87.87,0,0,1-.27,1.21h0a.84.84,0,0,1-.48.14h0A.87.87,0,0,1,36.61,250Zm262.2,0a.86.86,0,0,1-.26-1.2h0a.87.87,0,0,1,1.2-.28h0a.86.86,0,0,1,.27,1.2h0a.89.89,0,0,1-.75.42h0A.85.85,0,0,1,298.81,250ZM31,240.31a.87.87,0,0,1,.35-1.19h0a.88.88,0,0,1,1.19.36h0a.87.87,0,0,1-.37,1.18h0a.8.8,0,0,1-.4.11h0A.86.86,0,0,1,31,240.31Zm273.43.07a.89.89,0,0,1-.36-1.19h0a.86.86,0,0,1,1.18-.36h0a.85.85,0,0,1,.36,1.17h0a.85.85,0,0,1-.77.48h0A1,1,0,0,1,304.44,240.38ZM26.11,230.22a.87.87,0,0,1,.44-1.15h0a.87.87,0,0,1,1.15.45h0a.86.86,0,0,1-.45,1.15h0a.69.69,0,0,1-.35.08h0A.84.84,0,0,1,26.11,230.22Zm283.24.13a.88.88,0,0,1-.45-1.15h0a.88.88,0,0,1,1.16-.45h0a.87.87,0,0,1,.45,1.15h0a.85.85,0,0,1-.81.52h0A.91.91,0,0,1,309.35,230.35ZM21.94,219.83a.89.89,0,0,1,.54-1.12h0a.86.86,0,0,1,1.12.53h0a.88.88,0,0,1-.54,1.12h0a.85.85,0,0,1-.29,0h0A.91.91,0,0,1,21.94,219.83Zm291.58.17a.89.89,0,0,1-.53-1.12h0a.9.9,0,0,1,1.12-.54h0a.88.88,0,0,1,.53,1.12h0a.85.85,0,0,1-.82.59h0A.79.79,0,0,1,313.52,220ZM18.57,209.14a.87.87,0,0,1,.6-1.08h0a.88.88,0,0,1,1.08.62h0a.89.89,0,0,1-.6,1.08h0l-.24,0h0A.86.86,0,0,1,18.57,209.14Zm298.37.24a.87.87,0,0,1-.62-1.07h0a.87.87,0,0,1,1.08-.61h0a.86.86,0,0,1,.6,1.08h0a.88.88,0,0,1-.84.64h0A.6.6,0,0,1,316.94,209.38ZM16,198.24a.86.86,0,0,1,.69-1h0a.86.86,0,0,1,1,.68h0a.85.85,0,0,1-.69,1h0a.45.45,0,0,1-.16,0h0A.89.89,0,0,1,16,198.24Zm303.6.31a.89.89,0,0,1-.69-1v0a.88.88,0,0,1,1-.7h0a.87.87,0,0,1,.68,1h0a.86.86,0,0,1-.85.7h-.17ZM14.16,187.17a.86.86,0,0,1,.75-1h0a.89.89,0,0,1,1,.76h0a.88.88,0,0,1-.75,1H15A.86.86,0,0,1,14.16,187.17Zm307.23.38a.89.89,0,0,1-.77-1h0a.91.91,0,0,1,1-.76h0a.87.87,0,0,1,.75,1h0a.88.88,0,0,1-.87.77h0ZM13.15,176h0a.85.85,0,0,1,.82-.92h0a.89.89,0,0,1,.93.82h0a.89.89,0,0,1-.83.93h0A.89.89,0,0,1,13.15,176Zm309.28.45a.88.88,0,0,1-.84-.93h0a.89.89,0,0,1,.93-.82h0a.87.87,0,0,1,.82.92h0a.88.88,0,0,1-.87.83h0ZM13.8,165.69a.89.89,0,0,1-.86-.9h0a.87.87,0,0,1,.89-.86h0a.89.89,0,0,1,.86.9h0a.87.87,0,0,1-.89.86Zm308-1.24h0a.87.87,0,0,1,.86-.89h0a.86.86,0,0,1,.89.85h0a.87.87,0,0,1-.85.9h0A.89.89,0,0,1,321.77,164.45Zm-307.45-9.9a.89.89,0,0,1-.8-1h0a.88.88,0,0,1,1-.78h0a.88.88,0,0,1,.8.95h0a.9.9,0,0,1-.89.8h-.07Zm306.84-1.16a.88.88,0,0,1,.8-1h0a.88.88,0,0,1,1,.79h0a.87.87,0,0,1-.8.95H322A.89.89,0,0,1,321.16,153.39ZM15.64,143.48a.86.86,0,0,1-.71-1h0a.84.84,0,0,1,1-.71h0a.86.86,0,0,1,.73,1v0a.87.87,0,0,1-.86.72h-.15Zm304.12-1.09a.89.89,0,0,1,.72-1h0a.87.87,0,0,1,1,.73h0a.87.87,0,0,1-.72,1h0a.39.39,0,0,1-.15,0h0A.88.88,0,0,1,319.76,142.39Zm-302-9.85a.88.88,0,0,1-.64-1h0a.88.88,0,0,1,1.05-.66h0a.88.88,0,0,1,.66,1h0a.87.87,0,0,1-.85.67h-.22Zm299.82-1h0a.87.87,0,0,1,.66-1.05h0a.88.88,0,0,1,1,.64h0a.88.88,0,0,1-.65,1h0a.51.51,0,0,1-.21,0h0A.86.86,0,0,1,317.57,131.52Zm-296.9-9.74a.88.88,0,0,1-.57-1.11h0a.88.88,0,0,1,1.1-.57h0a.9.9,0,0,1,.58,1.11h0a.91.91,0,0,1-.84.6h0A1.12,1.12,0,0,1,20.67,121.78Zm293.92-.94h0a.87.87,0,0,1,.57-1.09h0a.86.86,0,0,1,1.09.56h0a.89.89,0,0,1-.56,1.11h0a.82.82,0,0,1-.26,0h0A.87.87,0,0,1,314.59,120.84ZM24.35,111.23a.88.88,0,0,1-.49-1.13h0a.88.88,0,0,1,1.15-.49h0a.86.86,0,0,1,.48,1.13h0a.86.86,0,0,1-.81.56h0A1,1,0,0,1,24.35,111.23Zm286.5-.82a.87.87,0,0,1,.47-1.14h0a.89.89,0,0,1,1.15.49h0a.89.89,0,0,1-.49,1.14h0a1,1,0,0,1-.32.07h0A.85.85,0,0,1,310.85,110.41ZM28.79,101a.87.87,0,0,1-.4-1.16h0a.88.88,0,0,1,1.17-.41h0a.87.87,0,0,1,.41,1.17h0a.86.86,0,0,1-.78.5h0A.82.82,0,0,1,28.79,101Zm277.56-.7h0a.89.89,0,0,1,.41-1.18h0a.89.89,0,0,1,1.17.41h0a.89.89,0,0,1-.4,1.18h0a1,1,0,0,1-.38.08h0A.88.88,0,0,1,306.35,100.29ZM34,91.12a.88.88,0,0,1-.32-1.21h0a.86.86,0,0,1,1.19-.31h0a.87.87,0,0,1,.32,1.19h0a.89.89,0,0,1-.76.44h0A.89.89,0,0,1,34,91.12Zm267.16-.61a.87.87,0,0,1,.32-1.19h0a.86.86,0,0,1,1.19.31h0a.88.88,0,0,1-.31,1.21h0a1,1,0,0,1-.45.11h0A.89.89,0,0,1,301.14,90.51ZM39.85,81.63a.88.88,0,0,1-.24-1.22h0a.88.88,0,0,1,1.22-.23h0a.87.87,0,0,1,.22,1.21h0a.82.82,0,0,1-.71.38h0A.85.85,0,0,1,39.85,81.63Zm255.39-.49h0a.88.88,0,0,1,.22-1.22h0a.87.87,0,0,1,1.22.23h0a.89.89,0,0,1-.22,1.22h0a.82.82,0,0,1-.5.15h0A.9.9,0,0,1,295.24,81.14ZM46.38,72.6a.9.9,0,0,1-.15-1.24h0a.91.91,0,0,1,1.24-.15h0a.87.87,0,0,1,.14,1.23h0a.86.86,0,0,1-.69.34h0A.92.92,0,0,1,46.38,72.6Zm242.29-.4a.84.84,0,0,1,.14-1.21h0a.85.85,0,0,1,1.23.14h0a.88.88,0,0,1-.14,1.23h0a.9.9,0,0,1-.54.18h0A.85.85,0,0,1,288.67,72.2ZM53.55,64.05a.88.88,0,0,1-.06-1.23h0a.88.88,0,0,1,1.25-.06h0a.87.87,0,0,1,0,1.23h0a.86.86,0,0,1-.64.28h0A.84.84,0,0,1,53.55,64.05Zm227.93-.28h0a.87.87,0,0,1,0-1.23h0a.88.88,0,0,1,1.24.05h0a.88.88,0,0,1,0,1.24h0a.88.88,0,0,1-.59.22h0A.83.83,0,0,1,281.48,63.77ZM61.32,56.05a.88.88,0,0,1,0-1.24h0a.86.86,0,0,1,1.23,0h0a.88.88,0,0,1,0,1.25h0a1,1,0,0,1-.61.24h0A.86.86,0,0,1,61.32,56.05Zm212.38-.18a.85.85,0,0,1,0-1.23h0a.88.88,0,0,1,1.23,0h0a.9.9,0,0,1,0,1.25h0a.89.89,0,0,1-.64.27h0A.82.82,0,0,1,273.7,55.87ZM69.63,48.63a.88.88,0,0,1,.13-1.24h0a.88.88,0,0,1,1.23.12h0a.87.87,0,0,1-.13,1.23h0a.85.85,0,0,1-.56.19h0A.84.84,0,0,1,69.63,48.63Zm195.74-.07v0a.86.86,0,0,1-.12-1.22h0a.87.87,0,0,1,1.23-.12h0a.86.86,0,0,1,.13,1.23h0a.87.87,0,0,1-.69.32h0A1,1,0,0,1,265.37,48.56ZM78.45,41.8a.87.87,0,0,1,.22-1.21h0a.85.85,0,0,1,1.21.2h0A.88.88,0,0,1,79.67,42h0a.89.89,0,0,1-.5.15h0A.85.85,0,0,1,78.45,41.8Zm178.08.05h0a.86.86,0,0,1-.22-1.22h0a.87.87,0,0,1,1.21-.21h0a.88.88,0,0,1,.23,1.22h0A.93.93,0,0,1,257,42h0A.89.89,0,0,1,256.53,41.85ZM87.74,35.66a.89.89,0,0,1,.3-1.21h0a.87.87,0,0,1,1.2.3h0A.86.86,0,0,1,89,36h0a.93.93,0,0,1-.45.13h0A.87.87,0,0,1,87.74,35.66Zm159.51.13h0a.88.88,0,0,1-.3-1.2h0a.87.87,0,0,1,1.21-.29h0v0h0a.9.9,0,0,1,.29,1.21h0a.88.88,0,0,1-.75.43h0A.81.81,0,0,1,247.25,35.79Zm-149.8-5.6A.89.89,0,0,1,97.84,29h0a.88.88,0,0,1,1.18.38h0a.88.88,0,0,1-.39,1.18h0a.78.78,0,0,1-.39.1h0A.86.86,0,0,1,97.45,30.19Zm140.09.23h0a.88.88,0,0,1-.38-1.19h0a.86.86,0,0,1,1.16-.38h0a.88.88,0,0,1,.4,1.18h0a.87.87,0,0,1-.79.47h0A.77.77,0,0,1,237.54,30.42Zm-130-5a.89.89,0,0,1,.48-1.15h0a.88.88,0,0,1,1.15.47h0a.89.89,0,0,1-.48,1.15h0a1,1,0,0,1-.33.07h0A.91.91,0,0,1,107.52,25.44Zm120,.32a.87.87,0,0,1-.48-1.13h0a.89.89,0,0,1,1.15-.48h0a.89.89,0,0,1,.48,1.15h0a.89.89,0,0,1-.82.54h0A.67.67,0,0,1,227.47,25.76ZM117.92,21.44a.86.86,0,0,1,.54-1.11h0a.86.86,0,0,1,1.11.55h0A.86.86,0,0,1,119,22h0a.82.82,0,0,1-.28,0h0A.86.86,0,0,1,117.92,21.44Zm99.17.42h0a.87.87,0,0,1-.56-1.11h0a.87.87,0,0,1,1.1-.55h0a.87.87,0,0,1,.56,1.11h0a.89.89,0,0,1-.84.6h0A.6.6,0,0,1,217.09,21.86Zm-88.5-3.67a.88.88,0,0,1,.62-1.07h0a.88.88,0,0,1,1.06.63h0a.87.87,0,0,1-.61,1.07h0a1,1,0,0,1-.23,0h0A.86.86,0,0,1,128.59,18.19Zm77.86.53a.88.88,0,0,1-.64-1.07h0a.9.9,0,0,1,1.08-.63h0a.9.9,0,0,1,.63,1.07h0a.89.89,0,0,1-.86.66h0A.51.51,0,0,1,206.45,18.72Zm-67-3a.89.89,0,0,1,.7-1h0a.9.9,0,0,1,1,.7h0a.9.9,0,0,1-.72,1h-.15A.86.86,0,0,1,139.46,15.74Zm56.15.62a.86.86,0,0,1-.7-1h0a.89.89,0,0,1,1-.72h0a.87.87,0,0,1,.7,1h0a.87.87,0,0,1-.85.72h0A.5.5,0,0,1,195.61,16.36Zm-45.14-2.29a.87.87,0,0,1,.79-1h0a.89.89,0,0,1,1,.77h0a.89.89,0,0,1-.79,1h-.08A.89.89,0,0,1,150.47,14.07Zm34.17.73h0a.87.87,0,0,1-.77-1h0a.85.85,0,0,1,.95-.77h0a.87.87,0,0,1,.79.95h0a.9.9,0,0,1-.87.8h-.1Zm-23-1.6a.86.86,0,0,1,.84-.91h0a.89.89,0,0,1,.91.84h0a.9.9,0,0,1-.86.91h0A.87.87,0,0,1,161.6,13.2Zm12,.83a.89.89,0,0,1-.86-.91h0a.91.91,0,0,1,.91-.85h0a.89.89,0,0,1,.85.92h0a.89.89,0,0,1-.87.84h0Z" transform="translate(-0.48 0.34)"/><path d="M168.4,310.27h-.16a1,1,0,0,1-1.05-1h0a1,1,0,0,1,1.05-1.05h.16a1.08,1.08,0,0,1,.19,0h0a1.06,1.06,0,0,1,1,1.05h0a1,1,0,0,1-1,1h-.19ZM157,309.85h0a1,1,0,0,1-1-1.13h0a1,1,0,0,1,1.12-1h0a1.07,1.07,0,0,1,1,1.14h0a1.06,1.06,0,0,1-1,1H157Zm21.63-1a1,1,0,0,1,1-1.14h0a1.06,1.06,0,0,1,1.14,1h0a1.05,1.05,0,0,1-1,1.13h-.08A1,1,0,0,1,178.66,308.87Zm-32.75-.31h0a1.06,1.06,0,0,1-.88-1.2h0a1.06,1.06,0,0,1,1.2-.89h0a1.07,1.07,0,0,1,.88,1.21h0a1,1,0,0,1-1,.89h-.17Zm43.8-.94a1.05,1.05,0,0,1,.87-1.2h0a1.05,1.05,0,0,1,1.21.87h0a1.05,1.05,0,0,1-.87,1.2h0l-.17,0h0A1.07,1.07,0,0,1,189.71,307.62Zm-54.8-1.25h0a1,1,0,0,1-.78-1.26h0a1.05,1.05,0,0,1,1.27-.77h0a1,1,0,0,1,.77,1.26h0a1,1,0,0,1-1,.8h0A.69.69,0,0,1,134.91,306.37Zm65.73-.85a1,1,0,0,1,.77-1.26h0a1.07,1.07,0,0,1,1.28.77h0a1.06,1.06,0,0,1-.79,1.26h0v0h0l-.24,0h0A1,1,0,0,1,200.64,305.52Zm-76.52-2.17a1,1,0,0,1-.67-1.33h0a1,1,0,0,1,1.32-.67h0a1,1,0,0,1,.67,1.31h0a1,1,0,0,1-1,.73h0A1.15,1.15,0,0,1,124.12,303.35Zm87.24-.79a1.07,1.07,0,0,1,.67-1.33h0a1.07,1.07,0,0,1,1.33.68h0a1.07,1.07,0,0,1-.67,1.33h0a1,1,0,0,1-.32.05h0A1.06,1.06,0,0,1,211.36,302.56Zm-97.77-3.09h0a1,1,0,0,1-.56-1.37h0a1,1,0,0,1,1.37-.58h0a1,1,0,0,1,.56,1.37h0a1,1,0,0,1-1,.65h0A1.47,1.47,0,0,1,113.59,299.47Zm108.22-.7a1,1,0,0,1,.57-1.37h0a1,1,0,0,1,1.37.56h0a1,1,0,0,1-.57,1.37h0a1.13,1.13,0,0,1-.39.08h0A1,1,0,0,1,221.81,298.77Zm-118.4-4h0a1,1,0,0,1-.45-1.41h0a1,1,0,0,1,1.41-.47h0a1.06,1.06,0,0,1,.45,1.42h0a1,1,0,0,1-.94.57h0A.9.9,0,0,1,103.41,294.76Zm128.51-.6a1.08,1.08,0,0,1,.46-1.42h0a1.06,1.06,0,0,1,1.42.47h0a1.07,1.07,0,0,1-.45,1.41h0a1.17,1.17,0,0,1-.49.11h0A1.08,1.08,0,0,1,231.92,294.16ZM93.63,289.27h0a1.06,1.06,0,0,1-.35-1.44h0a1.07,1.07,0,0,1,1.45-.35h0a1.05,1.05,0,0,1,.34,1.45h0a1,1,0,0,1-.9.49h0A1,1,0,0,1,93.63,289.27Zm148-.5a1.05,1.05,0,0,1,.33-1.45h0a1.07,1.07,0,0,1,1.46.34h0a1.09,1.09,0,0,1-.35,1.46h0a1.19,1.19,0,0,1-.55.15h0A1,1,0,0,1,241.66,288.77ZM84.31,283a1.07,1.07,0,0,1-.24-1.47h0a1,1,0,0,1,1.47-.23h0a1,1,0,0,1,.24,1.46h0a1,1,0,0,1-.85.43h0A1,1,0,0,1,84.31,283Zm166.62-.41a1,1,0,0,1,.24-1.46h0a1,1,0,0,1,1.46.23h0a1,1,0,0,1-.23,1.47h0a1.12,1.12,0,0,1-.61.19h0A1.07,1.07,0,0,1,250.93,282.63ZM75.5,276.09a1.06,1.06,0,0,1-.11-1.49h0a1.06,1.06,0,0,1,1.48-.11h0A1.06,1.06,0,0,1,77,276h0a1.08,1.08,0,0,1-.79.36h0A1.09,1.09,0,0,1,75.5,276.09Zm184.2-.3a1.06,1.06,0,0,1,.11-1.48h0a1,1,0,0,1,1.47.11h0a1,1,0,0,1-.11,1.47h0a1,1,0,0,1-.69.27h0A1.06,1.06,0,0,1,259.7,275.79ZM67.28,268.48a1,1,0,0,1,0-1.48h0a1,1,0,0,1,1.48,0h0a1,1,0,0,1,0,1.48h0a1.09,1.09,0,0,1-.74.31h0A1,1,0,0,1,67.28,268.48Zm200.63-.21a1,1,0,0,1,0-1.48h0a1.06,1.06,0,0,1,1.49,0h0a1,1,0,0,1,0,1.48h0a1,1,0,0,1-.75.31h0A1,1,0,0,1,267.91,268.27Zm-208.24-8h0a1,1,0,0,1,.13-1.47h0a1.06,1.06,0,0,1,1.49.11h0a1.06,1.06,0,0,1-.13,1.48h0a1,1,0,0,1-.67.26h0A1,1,0,0,1,59.67,260.24Zm215.85-.09a1.05,1.05,0,0,1-.13-1.49h0a1.07,1.07,0,0,1,1.49-.11h0A1,1,0,0,1,277,260h0a1.06,1.06,0,0,1-.8.37h0A1.06,1.06,0,0,1,275.52,260.15Zm-222.8-8.7a1.06,1.06,0,0,1,.22-1.46h0a1.06,1.06,0,0,1,1.48.22h0a1.05,1.05,0,0,1-.23,1.47h0a1,1,0,0,1-.61.2h0A1,1,0,0,1,52.72,251.45Zm229.75,0a1,1,0,0,1-.24-1.47h0a1.05,1.05,0,0,1,1.47-.24h0a1.05,1.05,0,0,1,.22,1.47h0a1,1,0,0,1-.84.43h0A1,1,0,0,1,282.47,251.45Zm-236-9.31a1,1,0,0,1,.33-1.44h0a1,1,0,0,1,1.45.34h0a1,1,0,0,1-.34,1.44h0a1,1,0,0,1-.55.16h0A1,1,0,0,1,46.49,242.14Zm242.21.09a1.05,1.05,0,0,1-.35-1.44h0a1.07,1.07,0,0,1,1.46-.35h0a1,1,0,0,1,.33,1.44h0a1,1,0,0,1-.89.5h0A1.08,1.08,0,0,1,288.7,242.23ZM41,232.37a1.05,1.05,0,0,1,.46-1.42h0a1.06,1.06,0,0,1,1.41.46h0a1.07,1.07,0,0,1-.46,1.42h0a1,1,0,0,1-.48.11h0A1.05,1.05,0,0,1,41,232.37Zm253.2.18a1.07,1.07,0,0,1-.46-1.42h0a1.05,1.05,0,0,1,1.42-.44h0a1,1,0,0,1,.46,1.4h0a1.08,1.08,0,0,1-.94.57h0A1.08,1.08,0,0,1,294.2,232.55ZM36.3,222.2a1.06,1.06,0,0,1,.56-1.38h0a1.08,1.08,0,0,1,1.38.58h0a1,1,0,0,1-.58,1.37h0a.88.88,0,0,1-.39.08h0A1.06,1.06,0,0,1,36.3,222.2Zm262.63.26a1.05,1.05,0,0,1-.58-1.37h0a1,1,0,0,1,1.37-.57h0a1,1,0,0,1,.58,1.37h0a1,1,0,0,1-1,.65h0A1,1,0,0,1,298.93,222.46ZM32.42,211.7h0a1,1,0,0,1,.67-1.33h0a1.05,1.05,0,0,1,1.32.68h0a1.06,1.06,0,0,1-.67,1.33h0a1.75,1.75,0,0,1-.32,0h0A1,1,0,0,1,32.42,211.7Zm270.43.34a1,1,0,0,1-.69-1.32h0a1.05,1.05,0,0,1,1.32-.68h0a1,1,0,0,1,.68,1.33h0a1,1,0,0,1-1,.73h0A.85.85,0,0,1,302.85,212ZM29.37,200.92a1.07,1.07,0,0,1,.78-1.28h0a1,1,0,0,1,1.26.79h0a1,1,0,0,1-.77,1.26h0l-.25,0h0A1.06,1.06,0,0,1,29.37,200.92Zm276.55.43a1.08,1.08,0,0,1-.79-1.27h0a1.05,1.05,0,0,1,1.28-.77h0a1,1,0,0,1,.77,1.26h0a1.08,1.08,0,0,1-1,.81h0ZM27.2,189.92h0a1,1,0,0,1,.87-1.21h0a1.06,1.06,0,0,1,1.2.87h0a1.07,1.07,0,0,1-.88,1.21h-.16A1,1,0,0,1,27.2,189.92Zm280.93.52a1,1,0,0,1-.87-1.19h0a1.06,1.06,0,0,1,1.19-.89h0a1.07,1.07,0,0,1,.88,1.21h0a1,1,0,0,1-1,.88h-.17ZM25.88,178.78a1.05,1.05,0,0,1,1-1.12h0a1.05,1.05,0,0,1,1.13,1h0a1.05,1.05,0,0,1-1,1.12h-.08A1,1,0,0,1,25.88,178.78Zm283.61.62a1.05,1.05,0,0,1-1-1.12h0a1,1,0,0,1,1.12-1h0a1,1,0,0,1,1,1.12h0a1,1,0,0,1-1,1h-.08Zm-284-11.81h0a1,1,0,0,1,1.05-1.05h0a1,1,0,0,1,1.05,1.05h0a1.06,1.06,0,0,1-1.05,1h0A1,1,0,0,1,25.45,167.59Zm283.48-.35a1,1,0,0,1,1.05-1.05h0a1,1,0,0,1,1,1.05h0a1.06,1.06,0,0,1-1,1h0A1.06,1.06,0,0,1,308.93,167.24Zm-282.1-9.72a1,1,0,0,1-1-1.14h0a1,1,0,0,1,1.13-1h0a1.06,1.06,0,0,1,1,1.13h0a1.06,1.06,0,0,1-1,1h-.09Zm281.65-1.32a1.05,1.05,0,0,1,1-1.13h0a1,1,0,0,1,1.12,1h0a1,1,0,0,1-1,1.14h-.08A1,1,0,0,1,308.48,156.2ZM28,146.45a1,1,0,0,1-.87-1.19h0a1,1,0,0,1,1.19-.88h0a1.06,1.06,0,0,1,.88,1.2h0a1,1,0,0,1-1,.88H28Zm279.14-1.22a1,1,0,0,1,.87-1.2h0a1.06,1.06,0,0,1,1.2.88h0a1,1,0,0,1-.87,1.2h-.17A1,1,0,0,1,307.18,145.23ZM30.11,135.52a1,1,0,0,1-.78-1.26h0a1.06,1.06,0,0,1,1.27-.78h0a1,1,0,0,1,.77,1.26h0a1,1,0,0,1-1,.8h0A.72.72,0,0,1,30.11,135.52ZM305,134.4h0a1,1,0,0,1,.77-1.26h0a1,1,0,0,1,1.26.77h0a1.08,1.08,0,0,1-.78,1.28h0l-.25,0h0A1.05,1.05,0,0,1,305,134.4ZM33,124.79a1,1,0,0,1-.67-1.33h0a1,1,0,0,1,1.31-.67h0a1.06,1.06,0,0,1,.68,1.33h0a1.08,1.08,0,0,1-1,.72h0A1.13,1.13,0,0,1,33,124.79Zm269-1h0a1,1,0,0,1,.67-1.33h0a1.06,1.06,0,0,1,1.32.68h0a1.05,1.05,0,0,1-.68,1.33h0a1.07,1.07,0,0,1-.32.05h0A1,1,0,0,1,302,123.78Zm-265.2-9.47a1.06,1.06,0,0,1-.58-1.37h0a1.05,1.05,0,0,1,1.38-.57h0a1.06,1.06,0,0,1,.57,1.37h0a1,1,0,0,1-1,.64h0A.89.89,0,0,1,36.81,114.31Zm261.36-.88a1.05,1.05,0,0,1,.56-1.37h0a1,1,0,0,1,1.37.57h0a1.05,1.05,0,0,1-.56,1.38h0a1.14,1.14,0,0,1-.4.08h0A1.06,1.06,0,0,1,298.17,113.43ZM41.39,104.16a1.05,1.05,0,0,1-.46-1.42h0a1,1,0,0,1,1.41-.44h0a1,1,0,0,1,.46,1.41h0a1,1,0,0,1-.94.56h0A1,1,0,0,1,41.39,104.16Zm252.13-.73A1,1,0,0,1,294,102h0a1.05,1.05,0,0,1,1.42.44h0a1.06,1.06,0,0,1-.47,1.42h0a1,1,0,0,1-.47.11h0A1.06,1.06,0,0,1,293.52,103.43Zm-246.75-9A1,1,0,0,1,46.42,93h0a1,1,0,0,1,1.44-.35h0a1.06,1.06,0,0,1,.35,1.44h0a1.07,1.07,0,0,1-.9.5h0A.94.94,0,0,1,46.77,94.41Zm241.34-.6a1.05,1.05,0,0,1,.34-1.45h0a1,1,0,0,1,1.44.35h0a1.06,1.06,0,0,1-.34,1.45h0a1.15,1.15,0,0,1-.54.15h0A1,1,0,0,1,288.11,93.81ZM52.89,85.11a1,1,0,0,1-.24-1.46h0a1.05,1.05,0,0,1,1.47-.23h0a1.07,1.07,0,0,1,.23,1.47h0a1.07,1.07,0,0,1-.86.42h0A1,1,0,0,1,52.89,85.11ZM282,84.64h0a1,1,0,0,1,.24-1.47h0a1.07,1.07,0,0,1,1.47.23h0a1,1,0,0,1-.22,1.47h0a1,1,0,0,1-.62.19h0A1.06,1.06,0,0,1,282,84.64ZM59.71,76.32a1,1,0,0,1-.12-1.48h0a1.06,1.06,0,0,1,1.48-.13h0a1.07,1.07,0,0,1,.11,1.49h0a1,1,0,0,1-.8.37h0A1,1,0,0,1,59.71,76.32ZM275.1,76h0a1.06,1.06,0,0,1,.11-1.49h0a1.05,1.05,0,0,1,1.48.11h0a1,1,0,0,1-.11,1.49h0a1.06,1.06,0,0,1-.68.25h0A1.09,1.09,0,0,1,275.1,76ZM67.19,68.08a1.06,1.06,0,0,1,0-1.48h0a1.06,1.06,0,0,1,1.49,0h0a1,1,0,0,1,0,1.48h0a1,1,0,0,1-.75.31h0A1,1,0,0,1,67.19,68.08Zm200.4-.19a1.07,1.07,0,0,1,0-1.5h0a1,1,0,0,1,1.48,0h0a1.06,1.06,0,0,1,0,1.49h0a1.06,1.06,0,0,1-.74.3h0A1.1,1.1,0,0,1,267.59,67.89ZM75.3,60.46A1.07,1.07,0,0,1,75.41,59h0a1.07,1.07,0,0,1,1.49.11h0a1.07,1.07,0,0,1-.11,1.49h0a1.09,1.09,0,0,1-.69.25h0A1.08,1.08,0,0,1,75.3,60.46Zm184.16-.06h0a1.07,1.07,0,0,1-.11-1.49h0a1.07,1.07,0,0,1,1.49-.11h0a1,1,0,0,1,.13,1.47h0a1.05,1.05,0,0,1-.8.38h0A1.12,1.12,0,0,1,259.46,60.4ZM84,53.5A1.06,1.06,0,0,1,84.21,52h0a1.06,1.06,0,0,1,1.47.24h0a1,1,0,0,1-.23,1.46h0a1.05,1.05,0,0,1-.62.21h0A1.11,1.11,0,0,1,84,53.5Zm166.82.06a1.07,1.07,0,0,1-.24-1.47h0a1,1,0,0,1,1.47-.23h0a1.06,1.06,0,0,1,.24,1.47h0a1,1,0,0,1-.85.43h0A1,1,0,0,1,250.79,53.56ZM93.18,47.24a1.06,1.06,0,0,1,.33-1.46h0a1.07,1.07,0,0,1,1.45.35h0a1.06,1.06,0,0,1-.34,1.45h0a1,1,0,0,1-.55.15h0A1,1,0,0,1,93.18,47.24Zm148.42.18a1,1,0,0,1-.35-1.44h0a1,1,0,0,1,1.44-.35h0a1.06,1.06,0,0,1,.35,1.44h0a1,1,0,0,1-.89.51h0A1,1,0,0,1,241.6,47.42ZM102.83,41.71a1.05,1.05,0,0,1,.45-1.42h0v0h0a1,1,0,0,1,1.41.44h0a1.06,1.06,0,0,1-.44,1.42h0a1.08,1.08,0,0,1-.48.11h0A1,1,0,0,1,102.83,41.71ZM232,42a1.06,1.06,0,0,1-.45-1.42h0a1,1,0,0,1,1.4-.46h0a1.05,1.05,0,0,1,.46,1.42h0a1.05,1.05,0,0,1-.93.57h0A1.16,1.16,0,0,1,232,42ZM112.87,37a1.06,1.06,0,0,1,.58-1.37h0a1,1,0,0,1,1.37.56h0a1,1,0,0,1-.56,1.37h0a1,1,0,0,1-.4.09h0A1.06,1.06,0,0,1,112.87,37Zm109,.44h0a1.06,1.06,0,0,1-.57-1.38h0a1.07,1.07,0,0,1,1.38-.56h0a1.05,1.05,0,0,1,.56,1.37h0a1,1,0,0,1-1,.66h0A1.09,1.09,0,0,1,221.92,37.41ZM123.28,33A1.05,1.05,0,0,1,124,31.7h0a1,1,0,0,1,1.31.68h0a1,1,0,0,1-.67,1.33h0a1.19,1.19,0,0,1-.32,0h0A1.05,1.05,0,0,1,123.28,33Zm88.26.56a1,1,0,0,1-.67-1.32h0a1,1,0,0,1,1.31-.69h0a1.06,1.06,0,0,1,.68,1.33h0a1.05,1.05,0,0,1-1,.73h0A.89.89,0,0,1,211.54,33.6ZM134,29.93a1.06,1.06,0,0,1,.78-1.27h0a1.06,1.06,0,0,1,1.26.78h0a1,1,0,0,1-.77,1.27h0a1.06,1.06,0,0,1-.25,0h0A1,1,0,0,1,134,29.93Zm66.95.7h0a1.08,1.08,0,0,1-.79-1.28h0a1.06,1.06,0,0,1,1.26-.78h0a1,1,0,0,1,.79,1.27h0a1.07,1.07,0,0,1-1,.81h0Zm-56-3a1.05,1.05,0,0,1,.87-1.21h0a1.06,1.06,0,0,1,1.2.89h0a1,1,0,0,1-.87,1.19h-.17A1,1,0,0,1,144.86,27.67Zm45.2.83a1,1,0,0,1-.86-1.21h0a1,1,0,0,1,1.19-.88h0a1.07,1.07,0,0,1,.88,1.2h0a1.06,1.06,0,0,1-1,.89h-.17ZM155.9,26.28a1,1,0,0,1,1-1.13h0a1,1,0,0,1,1.12,1h0a1,1,0,0,1-.95,1.14H157A1,1,0,0,1,155.9,26.28Zm23.19.94h0a1,1,0,0,1-1-1.12h0a1,1,0,0,1,1.13-1h0a1.07,1.07,0,0,1,1,1.14h0a1.05,1.05,0,0,1-1,1h-.09ZM167,25.76a1.07,1.07,0,0,1,1.05-1.06h0a1.06,1.06,0,0,1,1.06,1.05h0a1,1,0,0,1-1.06,1.05h0A1,1,0,0,1,167,25.76Z" transform="translate(-0.48 0.34)"/><path d="M167,296.54a1.24,1.24,0,0,1,1.24-1.23h.29a1.23,1.23,0,0,1,1.23,1.23h0a1.22,1.22,0,0,1-1.21,1.22h-.31A1.24,1.24,0,0,1,167,296.54Zm-10,.76a1.24,1.24,0,0,1-1.12-1.33h0a1.23,1.23,0,0,1,1.33-1.12h0a1.2,1.2,0,0,1,1.11,1.33h0a1.22,1.22,0,0,1-1.22,1.12H157Zm21.37-1.15a1.23,1.23,0,0,1,1.1-1.33h0a1.24,1.24,0,0,1,1.34,1.12h0a1.24,1.24,0,0,1-1.11,1.33h-.11A1.22,1.22,0,0,1,178.41,296.15Zm-32.48-.28a1.24,1.24,0,0,1-1-1.42h0a1.23,1.23,0,0,1,1.41-1h0a1.24,1.24,0,0,1,1,1.42h0a1.24,1.24,0,0,1-1.22,1h-.2Zm43.49-1.05a1.24,1.24,0,0,1,1-1.43h0a1.24,1.24,0,0,1,1.43,1h0a1.24,1.24,0,0,1-1,1.43h0a1,1,0,0,1-.23,0h0A1.24,1.24,0,0,1,189.42,294.82ZM135,293.49a1.23,1.23,0,0,1-.87-1.5h0a1.23,1.23,0,0,1,1.49-.89h0a1.24,1.24,0,0,1,.88,1.5h0a1.24,1.24,0,0,1-1.19.92h0A1.09,1.09,0,0,1,135,293.49Zm65.31-1a1.2,1.2,0,0,1,.87-1.49h0a1.22,1.22,0,0,1,1.5.86h0a1.24,1.24,0,0,1-.87,1.5h0a1.17,1.17,0,0,1-.32,0h0A1.21,1.21,0,0,1,200.29,292.53Zm-76-2.38v0h0a1.22,1.22,0,0,1-.74-1.57h0a1.2,1.2,0,0,1,1.56-.74h0a1.23,1.23,0,0,1,.75,1.56h0a1.27,1.27,0,0,1-1.17.82h0A1,1,0,0,1,124.28,290.15Zm86.63-.82a1.22,1.22,0,0,1,.74-1.57h0a1.22,1.22,0,0,1,1.57.73h0a1.22,1.22,0,0,1-.74,1.56h0a1,1,0,0,1-.41.07h0A1.23,1.23,0,0,1,210.91,289.33Zm-97-3.41a1.22,1.22,0,0,1-.61-1.62h0a1.24,1.24,0,0,1,1.63-.61h0a1.23,1.23,0,0,1,.6,1.63h0a1.22,1.22,0,0,1-1.12.71h0A1,1,0,0,1,113.9,285.92Zm107.32-.71a1.21,1.21,0,0,1,.59-1.63h0a1.25,1.25,0,0,1,1.64.6h0a1.23,1.23,0,0,1-.61,1.63h0a1.17,1.17,0,0,1-.51.11h0A1.19,1.19,0,0,1,221.22,285.21Zm-117.3-4.4a1.23,1.23,0,0,1-.46-1.67h0a1.21,1.21,0,0,1,1.67-.46h0a1.21,1.21,0,0,1,.46,1.67h0a1.22,1.22,0,0,1-1.06.61h0A1.2,1.2,0,0,1,103.92,280.81Zm127.2-.6a1.23,1.23,0,0,1,.47-1.67h0a1.21,1.21,0,0,1,1.66.45h0a1.24,1.24,0,0,1-.45,1.68h0a1.2,1.2,0,0,1-.61.15h0A1.25,1.25,0,0,1,231.12,280.21ZM94.43,274.86h0a1.23,1.23,0,0,1-.33-1.71h0a1.22,1.22,0,0,1,1.71-.31h0a1.21,1.21,0,0,1,.32,1.69h0a1.22,1.22,0,0,1-1,.53h0A1.28,1.28,0,0,1,94.43,274.86Zm146.14-.48a1.24,1.24,0,0,1,.32-1.71h0a1.21,1.21,0,0,1,1.69.32h0a1.23,1.23,0,0,1-.31,1.71h0a1.23,1.23,0,0,1-.7.21h0A1.2,1.2,0,0,1,240.57,274.38ZM85.47,268.1h0a1.24,1.24,0,0,1-.16-1.72h0a1.21,1.21,0,0,1,1.72-.17h0a1.21,1.21,0,0,1,.17,1.72h0a1.2,1.2,0,0,1-.94.45h0A1.31,1.31,0,0,1,85.47,268.1Zm164-.33a1.22,1.22,0,0,1,.15-1.73h0a1.23,1.23,0,0,1,1.73.16h0a1.22,1.22,0,0,1-.16,1.72h0a1.15,1.15,0,0,1-.78.29h0A1.22,1.22,0,0,1,249.49,267.77ZM77.14,260.61a1.23,1.23,0,0,1,0-1.73h0a1.22,1.22,0,0,1,1.74,0h0a1.23,1.23,0,0,1,0,1.73h0A1.21,1.21,0,0,1,78,261h0A1.18,1.18,0,0,1,77.14,260.61Zm180.66-.21a1.21,1.21,0,0,1,0-1.72h0a1.22,1.22,0,0,1,1.74,0h0a1.24,1.24,0,0,1,0,1.74h0a1.25,1.25,0,0,1-.85.35h0A1.2,1.2,0,0,1,257.8,260.4Zm-188.32-8h0a1.2,1.2,0,0,1,.12-1.72h0a1.21,1.21,0,0,1,1.72.12h0a1.21,1.21,0,0,1-.12,1.73h0a1.27,1.27,0,0,1-.8.29h0A1.18,1.18,0,0,1,69.48,252.44Zm196-.07a1.24,1.24,0,0,1-.14-1.74h0a1.23,1.23,0,0,1,1.74-.12h0a1.23,1.23,0,0,1,.12,1.72h0a1.24,1.24,0,0,1-.92.44h0A1.17,1.17,0,0,1,265.46,252.37ZM62.53,243.64a1.23,1.23,0,0,1,.28-1.71h0a1.21,1.21,0,0,1,1.71.29h0a1.23,1.23,0,0,1-.28,1.7h0a1.19,1.19,0,0,1-.72.23h0A1.2,1.2,0,0,1,62.53,243.64Zm209.86.06a1.24,1.24,0,0,1-.28-1.71h0a1.23,1.23,0,0,1,1.71-.28h0a1.23,1.23,0,0,1,.28,1.71h0a1.19,1.19,0,0,1-1,.5h0A1.29,1.29,0,0,1,272.39,243.7Zm-216-9.41a1.24,1.24,0,0,1,.42-1.69h0a1.25,1.25,0,0,1,1.7.42h0a1.25,1.25,0,0,1-.44,1.69h0a1.14,1.14,0,0,1-.61.18h0A1.3,1.3,0,0,1,56.36,234.29Zm222.21.18a1.23,1.23,0,0,1-.43-1.68h0a1.22,1.22,0,0,1,1.68-.42h0a1.2,1.2,0,0,1,.43,1.66h0a1.22,1.22,0,0,1-1.06.61h0A1.29,1.29,0,0,1,278.57,234.47ZM51,224.44h0a1.23,1.23,0,0,1,.56-1.64h0a1.21,1.21,0,0,1,1.64.56h0a1.24,1.24,0,0,1-.56,1.64h0a1.33,1.33,0,0,1-.55.12h0A1.21,1.21,0,0,1,51,224.44Zm232.88.31a1.24,1.24,0,0,1-.57-1.64h0a1.22,1.22,0,0,1,1.63-.58h0a1.22,1.22,0,0,1,.57,1.64h0a1.21,1.21,0,0,1-1.11.69h0A1.23,1.23,0,0,1,283.92,224.75ZM46.57,214.16a1.22,1.22,0,0,1,.72-1.59h0a1.22,1.22,0,0,1,1.58.72h0a1.24,1.24,0,0,1-.72,1.58h0a1.61,1.61,0,0,1-.43.07h0A1.25,1.25,0,0,1,46.57,214.16Zm241.85.43a1.22,1.22,0,0,1-.7-1.58h0a1.25,1.25,0,0,1,1.59-.72h0a1.22,1.22,0,0,1,.71,1.58h0a1.21,1.21,0,0,1-1.15.79h0A1.29,1.29,0,0,1,288.42,214.59ZM43,203.54h0a1.26,1.26,0,0,1,.84-1.53h0a1.24,1.24,0,0,1,1.52.84h0a1.26,1.26,0,0,1-.84,1.53h0a1.5,1.5,0,0,1-.35,0h0A1.24,1.24,0,0,1,43,203.54Zm249,.54a1.23,1.23,0,0,1-.84-1.51h0a1.2,1.2,0,0,1,1.51-.84h0a1.2,1.2,0,0,1,.84,1.51h0a1.22,1.22,0,0,1-1.17.88h0A1.27,1.27,0,0,1,292,204.08ZM40.39,192.64h0a1.24,1.24,0,0,1,1-1.44h0a1.23,1.23,0,0,1,1.44,1h0a1.23,1.23,0,0,1-1,1.44h0l-.24,0h0A1.23,1.23,0,0,1,40.39,192.64Zm254.32.67a1.22,1.22,0,0,1-1-1.43h0a1.22,1.22,0,0,1,1.44-1h0a1.24,1.24,0,0,1,1,1.44h0a1.23,1.23,0,0,1-1.21,1h0Zm-256-11.75h0a1.2,1.2,0,0,1,1.07-1.35h0a1.22,1.22,0,0,1,1.35,1.08h0a1.22,1.22,0,0,1-1.08,1.36h-.14A1.22,1.22,0,0,1,38.71,181.56Zm257.72.79a1.24,1.24,0,0,1-1.09-1.35h0a1.21,1.21,0,0,1,1.36-1.08h0a1.21,1.21,0,0,1,1.09,1.34h0a1.21,1.21,0,0,1-1.21,1.09h-.14ZM38,170.38a1.22,1.22,0,0,1,1.2-1.25h0a1.21,1.21,0,0,1,1.25,1.19h0a1.24,1.24,0,0,1-1.2,1.26h0A1.22,1.22,0,0,1,38,170.38Zm259.23.89A1.22,1.22,0,0,1,296,170h0a1.23,1.23,0,0,1,1.24-1.21h0a1.24,1.24,0,0,1,1.21,1.26h0a1.23,1.23,0,0,1-1.22,1.2h0ZM39.37,160.47a1.21,1.21,0,0,1-1.13-1.3h0A1.2,1.2,0,0,1,39.52,158h0a1.21,1.21,0,0,1,1.15,1.29h0a1.21,1.21,0,0,1-1.22,1.13h-.08ZM295.77,159a1.24,1.24,0,0,1,1.15-1.3h0a1.24,1.24,0,0,1,1.31,1.15h0a1.25,1.25,0,0,1-1.15,1.3H297A1.24,1.24,0,0,1,295.77,159Zm-255.32-9.6a1.24,1.24,0,0,1-1-1.4h0a1.23,1.23,0,0,1,1.4-1h0a1.25,1.25,0,0,1,1,1.4h0a1.24,1.24,0,0,1-1.22,1h0Zm254.13-1.33a1.24,1.24,0,0,1,1-1.4h0a1.24,1.24,0,0,1,1.39,1h0a1.21,1.21,0,0,1-1,1.39h-.18A1.23,1.23,0,0,1,294.58,148.1ZM42.45,138.51a1.2,1.2,0,0,1-.89-1.47h0a1.21,1.21,0,0,1,1.47-.91h0a1.23,1.23,0,0,1,.91,1.48h0a1.24,1.24,0,0,1-1.19.94h0A1,1,0,0,1,42.45,138.51Zm250-1.19a1.25,1.25,0,0,1,.89-1.49h0a1.25,1.25,0,0,1,1.49.91h0a1.21,1.21,0,0,1-.9,1.47h0a1,1,0,0,1-.29,0h0A1.24,1.24,0,0,1,292.47,137.32Zm-247.06-9.5a1.22,1.22,0,0,1-.77-1.56h0a1.22,1.22,0,0,1,1.54-.78h0A1.24,1.24,0,0,1,47,127h0a1.24,1.24,0,0,1-1.17.85h0A1.59,1.59,0,0,1,45.41,127.82Zm244-1.07a1.23,1.23,0,0,1,.79-1.55h0a1.23,1.23,0,0,1,1.54.77h0a1.23,1.23,0,0,1-.77,1.56h0a1.27,1.27,0,0,1-.39.06h0A1.25,1.25,0,0,1,289.41,126.75ZM49.27,117.4a1.24,1.24,0,0,1-.64-1.61h0a1.22,1.22,0,0,1,1.63-.63h0a1.23,1.23,0,0,1,.63,1.61h0a1.22,1.22,0,0,1-1.12.72h0A1.23,1.23,0,0,1,49.27,117.4Zm236.19-.9h0a1.21,1.21,0,0,1,.63-1.61h0a1.22,1.22,0,0,1,1.61.63h0a1.24,1.24,0,0,1-.63,1.61h0a1.24,1.24,0,0,1-.49.11h0A1.26,1.26,0,0,1,285.46,116.5ZM54,107.37a1.25,1.25,0,0,1-.49-1.67h0a1.23,1.23,0,0,1,1.67-.49h0a1.22,1.22,0,0,1,.49,1.65h0a1.23,1.23,0,0,1-1.08.65h0A1.45,1.45,0,0,1,54,107.37Zm226.62-.75a1.23,1.23,0,0,1,.51-1.66h0a1.21,1.21,0,0,1,1.65.49h0a1.22,1.22,0,0,1-.49,1.66h0a1.21,1.21,0,0,1-.59.16h0A1.25,1.25,0,0,1,280.64,106.62Zm-221-8.85a1.21,1.21,0,0,1-.35-1.69h0A1.22,1.22,0,0,1,61,95.72h0a1.21,1.21,0,0,1,.35,1.7h0a1.24,1.24,0,0,1-1,.56h0A1.18,1.18,0,0,1,59.63,97.77ZM275,97.2h0a1.21,1.21,0,0,1,.35-1.7h0a1.21,1.21,0,0,1,1.69.35h0a1.24,1.24,0,0,1-.35,1.7h0a1.18,1.18,0,0,1-.67.19h0A1.24,1.24,0,0,1,275,97.2ZM66,88.71a1.24,1.24,0,0,1-.2-1.73h0a1.21,1.21,0,0,1,1.71-.21h0a1.23,1.23,0,0,1,.21,1.73h0a1.23,1.23,0,0,1-1,.46h0A1.3,1.3,0,0,1,66,88.71Zm202.52-.42h0a1.24,1.24,0,0,1,.2-1.73h0a1.23,1.23,0,0,1,1.72.21h0a1.21,1.21,0,0,1-.19,1.71h0a1.22,1.22,0,0,1-.76.27h0A1.25,1.25,0,0,1,268.55,88.29ZM73.19,80.22a1.24,1.24,0,0,1-.06-1.74h0a1.23,1.23,0,0,1,1.74-.06h0a1.24,1.24,0,0,1,.06,1.74h0a1.3,1.3,0,0,1-.9.38h0A1.26,1.26,0,0,1,73.19,80.22ZM261.37,80a1.24,1.24,0,0,1,.05-1.74h0a1.24,1.24,0,0,1,1.74,0h0a1.23,1.23,0,0,1,0,1.73h0a1.26,1.26,0,0,1-.85.33h0A1.23,1.23,0,0,1,261.37,80ZM81.05,72.36a1.21,1.21,0,0,1,.08-1.73h0a1.24,1.24,0,0,1,1.74.09h0a1.24,1.24,0,0,1-.1,1.74h0a1.22,1.22,0,0,1-.81.3h0A1.15,1.15,0,0,1,81.05,72.36Zm172.44-.09a1.21,1.21,0,0,1-.08-1.72h0a1.22,1.22,0,0,1,1.72-.1h0a1.22,1.22,0,0,1,.1,1.73h0a1.19,1.19,0,0,1-.91.42h0A1.28,1.28,0,0,1,253.49,72.27ZM89.54,65.21a1.22,1.22,0,0,1,.23-1.71h0a1.25,1.25,0,0,1,1.73.24h0a1.23,1.23,0,0,1-.24,1.71h0a1.22,1.22,0,0,1-.74.25h0A1.17,1.17,0,0,1,89.54,65.21ZM245,65.3a1.22,1.22,0,0,1-.24-1.73h0a1.22,1.22,0,0,1,1.71-.23h0a1.22,1.22,0,0,1,.23,1.72h0a1.22,1.22,0,0,1-1,.48h0A1.16,1.16,0,0,1,245,65.3ZM98.61,58.83a1.24,1.24,0,0,1,.38-1.7h0a1.24,1.24,0,0,1,1.7.38h0a1.25,1.25,0,0,1-.38,1.7h0a1.34,1.34,0,0,1-.66.18h0A1.22,1.22,0,0,1,98.61,58.83Zm137.33.23h0a1.21,1.21,0,0,1-.39-1.68h0a1.23,1.23,0,0,1,1.69-.39h0a1.22,1.22,0,0,1,.38,1.7h0a1.22,1.22,0,0,1-1,.57h0A1.18,1.18,0,0,1,235.94,59.06ZM108.2,53.24a1.24,1.24,0,0,1,.53-1.66h0a1.22,1.22,0,0,1,1.65.54h0a1.23,1.23,0,0,1-.53,1.65h0a1.38,1.38,0,0,1-.56.12h0A1.21,1.21,0,0,1,108.2,53.24Zm118.17.4h0a1.23,1.23,0,0,1-.53-1.65h0a1.22,1.22,0,0,1,1.65-.53h0a1.23,1.23,0,0,1,.54,1.65h0a1.26,1.26,0,0,1-1.1.66h0A1.27,1.27,0,0,1,226.37,53.64ZM118.24,48.5a1.22,1.22,0,0,1,.66-1.6h0a1.23,1.23,0,0,1,1.6.66h0a1.23,1.23,0,0,1-.66,1.6h0a1.15,1.15,0,0,1-.48.1h0A1.19,1.19,0,0,1,118.24,48.5Zm98.13.56a1.23,1.23,0,0,1-.67-1.6h0a1.22,1.22,0,0,1,1.6-.67h0a1.23,1.23,0,0,1,.67,1.6h0a1.23,1.23,0,0,1-1.14.76h0A1.29,1.29,0,0,1,216.37,49.06Zm-87.72-4.42a1.2,1.2,0,0,1,.8-1.53h0a1.22,1.22,0,0,1,1.54.8h0a1.25,1.25,0,0,1-.82,1.54h0a1.08,1.08,0,0,1-.36,0h0A1.2,1.2,0,0,1,128.65,44.64Zm77.36.72h0a1.23,1.23,0,0,1-.81-1.54h0a1.22,1.22,0,0,1,1.52-.81h0a1.25,1.25,0,0,1,.82,1.54h0a1.24,1.24,0,0,1-1.18.86h0A1.56,1.56,0,0,1,206,45.36Zm-66.67-3.67a1.22,1.22,0,0,1,.94-1.45h0a1.25,1.25,0,0,1,1.47.93h0a1.23,1.23,0,0,1-.94,1.46h0a.83.83,0,0,1-.27,0h0A1.23,1.23,0,0,1,139.34,41.69Zm56,.88h0a1.21,1.21,0,0,1-.94-1.44h0a1.23,1.23,0,0,1,1.46-.94h0a1.21,1.21,0,0,1,.94,1.46h0a1.23,1.23,0,0,1-1.19,1h0A1.31,1.31,0,0,1,195.37,42.57Zm-45.11-2.88a1.22,1.22,0,0,1,1.06-1.37h0a1.24,1.24,0,0,1,1.37,1.06h0a1.23,1.23,0,0,1-1.06,1.37h0l-.16,0h0A1.25,1.25,0,0,1,150.26,39.69Zm34.28,1h0a1.22,1.22,0,0,1-1.06-1.37h0a1.22,1.22,0,0,1,1.37-1.06h0a1.24,1.24,0,0,1,1.07,1.37h0a1.26,1.26,0,0,1-1.22,1.08h0A.44.44,0,0,1,184.54,40.71Zm-23.22-2.07a1.2,1.2,0,0,1,1.16-1.28h0a1.23,1.23,0,0,1,1.28,1.17h0a1.23,1.23,0,0,1-1.17,1.27h-.05A1.2,1.2,0,0,1,161.32,38.64Zm11.09-.13a1.23,1.23,0,0,1,1.28-1.17h0a1.22,1.22,0,0,1,1.17,1.28h0a1.21,1.21,0,0,1-1.27,1.16h0A1.25,1.25,0,0,1,172.41,38.51Z" transform="translate(-0.48 0.34)"/><path d="M166.84,283.84a1.41,1.41,0,0,1,1.4-1.41h0a.25.25,0,0,1,.12,0h0a.3.3,0,0,1,.13,0h0a1.41,1.41,0,0,1,1.4,1.41h0a1.4,1.4,0,0,1-1.4,1.4h-.26A1.4,1.4,0,0,1,166.84,283.84Zm1.66,1.4Zm-11.29-.51A1.4,1.4,0,0,1,156,283.2h0a1.4,1.4,0,0,1,1.53-1.26h0a1.4,1.4,0,0,1,1.26,1.52h0a1.41,1.41,0,0,1-1.39,1.27h-.14ZM178,283.44a1.4,1.4,0,0,1,1.26-1.52h0a1.42,1.42,0,0,1,1.54,1.26h0a1.39,1.39,0,0,1-1.26,1.52h0l-.14,0h0A1.41,1.41,0,0,1,178,283.44Zm-31.71-.25h0a1.42,1.42,0,0,1-1.12-1.63h0a1.41,1.41,0,0,1,1.64-1.12h0a1.39,1.39,0,0,1,1.13,1.63h0a1.4,1.4,0,0,1-1.38,1.14h0A.86.86,0,0,1,146.28,283.19ZM188.8,282a1.42,1.42,0,0,1,1.12-1.64h0a1.41,1.41,0,0,1,1.64,1.12h0a1.42,1.42,0,0,1-1.12,1.64h0l-.25,0h0A1.42,1.42,0,0,1,188.8,282Zm-53.24-1.39h0a1.39,1.39,0,0,1-1-1.74h0a1.39,1.39,0,0,1,1.73-.95h0a1.41,1.41,0,0,1,1,1.74h0a1.41,1.41,0,0,1-1.36,1h0A1.19,1.19,0,0,1,135.56,280.64Zm63.88-1a1.4,1.4,0,0,1,.95-1.74h0a1.39,1.39,0,0,1,1.73.95h0a1.38,1.38,0,0,1-1,1.74h0a1.67,1.67,0,0,1-.39.06h0A1.42,1.42,0,0,1,199.44,279.62Zm-74.34-2.54a1.38,1.38,0,0,1-.78-1.8h0a1.39,1.39,0,0,1,1.81-.8h0a1.4,1.4,0,0,1,.8,1.82h0a1.44,1.44,0,0,1-1.31.88h0A1.34,1.34,0,0,1,125.1,277.08Zm84.69-.88a1.41,1.41,0,0,1,.8-1.82h0a1.39,1.39,0,0,1,1.8.78h0a1.37,1.37,0,0,1-.78,1.82h0a1.32,1.32,0,0,1-.51.1h0A1.41,1.41,0,0,1,209.79,276.2ZM115,272.56h0a1.41,1.41,0,0,1-.61-1.89h0a1.41,1.41,0,0,1,1.89-.62h0a1.41,1.41,0,0,1,.61,1.89h0a1.41,1.41,0,0,1-1.24.76h0A1.35,1.35,0,0,1,115,272.56Zm104.76-.73a1.39,1.39,0,0,1,.6-1.88h0a1.41,1.41,0,0,1,1.89.6h0a1.43,1.43,0,0,1-.61,1.9h0a1.57,1.57,0,0,1-.63.15h0A1.38,1.38,0,0,1,219.79,271.83Zm-114.35-4.72a1.42,1.42,0,0,1-.44-1.94h0a1.42,1.42,0,0,1,1.93-.43h0a1.39,1.39,0,0,1,.44,1.93h0a1.4,1.4,0,0,1-1.18.66h0A1.36,1.36,0,0,1,105.44,267.11Zm123.88-.58a1.38,1.38,0,0,1,.43-1.92h0a1.41,1.41,0,0,1,1.93.44h0a1.39,1.39,0,0,1-.43,1.93h0a1.36,1.36,0,0,1-.74.22h0A1.4,1.4,0,0,1,229.32,266.53ZM96.4,260.79h0a1.4,1.4,0,0,1-.27-2h0a1.41,1.41,0,0,1,2-.25h0a1.42,1.42,0,0,1,.25,2h0a1.41,1.41,0,0,1-1.11.54h0A1.35,1.35,0,0,1,96.4,260.79Zm141.92-.41a1.42,1.42,0,0,1,.24-2h0a1.44,1.44,0,0,1,2,.25h0a1.43,1.43,0,0,1-.26,2h0a1.45,1.45,0,0,1-.85.29h0A1.42,1.42,0,0,1,238.32,260.38ZM88,253.65a1.4,1.4,0,0,1-.07-2h0a1.4,1.4,0,0,1,2-.07h0a1.4,1.4,0,0,1,.07,2h0a1.41,1.41,0,0,1-1,.44h0A1.41,1.41,0,0,1,88,253.65Zm158.72-.24a1.41,1.41,0,0,1,.07-2h0a1.41,1.41,0,0,1,2,.07h0a1.41,1.41,0,0,1-.07,2h0v0h0a1.36,1.36,0,0,1-1,.38h0A1.41,1.41,0,0,1,246.7,253.41ZM80.26,245.76a1.42,1.42,0,0,1,.11-2h0a1.42,1.42,0,0,1,2,.12h0a1.39,1.39,0,0,1-.12,2h0a1.37,1.37,0,0,1-.93.35h0A1.4,1.4,0,0,1,80.26,245.76Zm174.13-.07a1.42,1.42,0,0,1-.11-2h0a1.38,1.38,0,0,1,2-.11h0a1.4,1.4,0,0,1,.13,2h0a1.43,1.43,0,0,1-1,.48h0A1.52,1.52,0,0,1,254.39,245.69Zm-181.06-8.5h0a1.41,1.41,0,0,1,.29-2h0a1.41,1.41,0,0,1,2,.3h0a1.4,1.4,0,0,1-.3,2h0a1.41,1.41,0,0,1-.83.28h0A1.38,1.38,0,0,1,73.33,237.19Zm188,.08a1.39,1.39,0,0,1-.29-2h0a1.4,1.4,0,0,1,2-.3h0a1.42,1.42,0,0,1,.29,2h0a1.42,1.42,0,0,1-1.13.57h0A1.45,1.45,0,0,1,261.34,237.27ZM67.21,228a1.39,1.39,0,0,1,.47-1.92h0a1.41,1.41,0,0,1,1.94.47h0a1.4,1.4,0,0,1-.49,1.92h0a1.39,1.39,0,0,1-.72.21h0A1.4,1.4,0,0,1,67.21,228Zm200.27.26a1.4,1.4,0,0,1-.48-1.93h0a1.41,1.41,0,0,1,1.92-.48h0a1.41,1.41,0,0,1,.48,1.92h0a1.41,1.41,0,0,1-1.21.69h0A1.41,1.41,0,0,1,267.48,228.26ZM62,218.27h0a1.39,1.39,0,0,1,.66-1.86h0a1.38,1.38,0,0,1,1.86.66h0a1.38,1.38,0,0,1-.66,1.86h0a1.26,1.26,0,0,1-.6.14h0A1.39,1.39,0,0,1,62,218.27Zm210.76.44a1.43,1.43,0,0,1-.67-1.88h0a1.42,1.42,0,0,1,1.88-.66h0a1.41,1.41,0,0,1,.66,1.86h0a1.41,1.41,0,0,1-1.28.8h0A1.59,1.59,0,0,1,272.74,218.71Zm-215-10.59h0a1.42,1.42,0,0,1,.83-1.81h0a1.39,1.39,0,0,1,1.79.84h0a1.38,1.38,0,0,1-.82,1.79h0A1.37,1.37,0,0,1,59,209h0A1.4,1.4,0,0,1,57.69,208.12Zm219.38.57a1.39,1.39,0,0,1-.82-1.79h0a1.39,1.39,0,0,1,1.79-.84h0a1.4,1.4,0,0,1,.84,1.8h0a1.42,1.42,0,0,1-1.32.92h0A1.41,1.41,0,0,1,277.07,208.69ZM54.37,197.58a1.42,1.42,0,0,1,1-1.71h0a1.42,1.42,0,0,1,1.72,1h0a1.41,1.41,0,0,1-1,1.72h0a1.39,1.39,0,0,1-.35,0h0A1.41,1.41,0,0,1,54.37,197.58Zm226.09.75a1.4,1.4,0,0,1-1-1.71h0a1.41,1.41,0,0,1,1.71-1h0a1.41,1.41,0,0,1,1,1.71h0a1.39,1.39,0,0,1-1.35,1h0A2.09,2.09,0,0,1,280.46,198.33ZM52.06,186.8h0a1.4,1.4,0,0,1,1.17-1.61h0a1.41,1.41,0,0,1,1.61,1.14h0a1.4,1.4,0,0,1-1.17,1.61h0a.83.83,0,0,1-.22,0h0A1.41,1.41,0,0,1,52.06,186.8Zm230.78.89a1.4,1.4,0,0,1-1.16-1.61h0a1.4,1.4,0,0,1,1.61-1.16h0a1.39,1.39,0,0,1,1.15,1.61h0a1.39,1.39,0,0,1-1.37,1.18h0Zm-232-11.85a1.4,1.4,0,0,1,1.3-1.5h0a1.41,1.41,0,0,1,1.49,1.3h0a1.4,1.4,0,0,1-1.29,1.5h-.1A1.39,1.39,0,0,1,50.79,175.84Zm233.43,1a1.38,1.38,0,0,1-1.31-1.48h0a1.39,1.39,0,0,1,1.49-1.3h0a1.39,1.39,0,0,1,1.3,1.49h0a1.4,1.4,0,0,1-1.39,1.31h0S284.24,176.88,284.22,176.86ZM51.89,166.24a1.42,1.42,0,0,1-1.37-1.44h0A1.4,1.4,0,0,1,52,163.44h0a1.39,1.39,0,0,1,1.37,1.43h0a1.4,1.4,0,0,1-1.4,1.37h0Zm231.25-1.63h0a1.39,1.39,0,0,1,1.36-1.43h0a1.39,1.39,0,0,1,1.44,1.36h0a1.42,1.42,0,0,1-1.36,1.44h0A1.4,1.4,0,0,1,283.14,164.61ZM52.51,155.35a1.4,1.4,0,0,1-1.23-1.54h0a1.4,1.4,0,0,1,1.55-1.24h0a1.42,1.42,0,0,1,1.24,1.56h0a1.4,1.4,0,0,1-1.39,1.23h-.17Zm229.87-1.49h0a1.4,1.4,0,0,1,1.23-1.55h0a1.41,1.41,0,0,1,1.56,1.23h0v0h0a1.43,1.43,0,0,1-1.22,1.57h-.19A1.37,1.37,0,0,1,282.38,153.86ZM54.15,144.57a1.39,1.39,0,0,1-1.08-1.66h0a1.39,1.39,0,0,1,1.65-1.09h0a1.4,1.4,0,0,1,1.08,1.66h0a1.39,1.39,0,0,1-1.36,1.11h0A1,1,0,0,1,54.15,144.57Zm226.45-1.33a1.4,1.4,0,0,1,1.08-1.66h0a1.4,1.4,0,0,1,1.67,1.07h0a1.42,1.42,0,0,1-1.08,1.67h0a1.53,1.53,0,0,1-.3,0h0A1.41,1.41,0,0,1,280.6,143.24ZM56.78,134a1.41,1.41,0,0,1-.91-1.77h0a1.39,1.39,0,0,1,1.75-.91h0a1.38,1.38,0,0,1,.91,1.75h0a1.39,1.39,0,0,1-1.33,1h0A1.51,1.51,0,0,1,56.78,134Zm221.08-1.18a1.38,1.38,0,0,1,.91-1.75h0a1.38,1.38,0,0,1,1.75.91h0a1.39,1.39,0,0,1-.91,1.76h0a1.22,1.22,0,0,1-.42.06h0A1.39,1.39,0,0,1,277.86,132.82ZM60.41,123.7a1.4,1.4,0,0,1-.76-1.82h0a1.43,1.43,0,0,1,1.84-.76h0a1.42,1.42,0,0,1,.76,1.84h0a1.42,1.42,0,0,1-1.31.85h0A1.33,1.33,0,0,1,60.41,123.7Zm213.72-1a1.4,1.4,0,0,1,.74-1.84h0a1.4,1.4,0,0,1,1.84.75h0a1.38,1.38,0,0,1-.75,1.83h0a1.16,1.16,0,0,1-.54.11h0A1.39,1.39,0,0,1,274.13,122.72ZM65,113.81a1.41,1.41,0,0,1-.57-1.91h0a1.38,1.38,0,0,1,1.89-.55h0a1.38,1.38,0,0,1,.57,1.89h0a1.4,1.4,0,0,1-1.23.74h0A1.44,1.44,0,0,1,65,113.81Zm204.48-.8a1.39,1.39,0,0,1,.55-1.89h0a1.39,1.39,0,0,1,1.91.56h0a1.42,1.42,0,0,1-.57,1.91h0a1.43,1.43,0,0,1-.66.16h0A1.36,1.36,0,0,1,269.47,113Zm-199-8.63a1.4,1.4,0,0,1-.4-1.93h0A1.4,1.4,0,0,1,72,102h0a1.41,1.41,0,0,1,.4,1.95h0a1.4,1.4,0,0,1-1.17.63h0A1.4,1.4,0,0,1,70.48,104.38Zm193.44-.6a1.37,1.37,0,0,1,.38-1.93h0a1.39,1.39,0,0,1,1.94.37h0a1.39,1.39,0,0,1-.39,2h0a1.37,1.37,0,0,1-.77.24h0A1.36,1.36,0,0,1,263.92,103.78ZM76.82,95.51a1.41,1.41,0,0,1-.2-2h0a1.4,1.4,0,0,1,2-.21h0a1.4,1.4,0,0,1,.21,2h0a1.42,1.42,0,0,1-1.09.52h0A1.39,1.39,0,0,1,76.82,95.51Zm180.7-.4a1.4,1.4,0,0,1,.21-2h0a1.4,1.4,0,0,1,2,.21h0a1.41,1.41,0,0,1-.2,2h0a1.41,1.41,0,0,1-.88.31h0A1.44,1.44,0,0,1,257.52,95.11ZM84,87.28a1.4,1.4,0,0,1,0-2h0a1.39,1.39,0,0,1,2,0h0a1.4,1.4,0,0,1,0,2h0a1.42,1.42,0,0,1-1,.42h0A1.39,1.39,0,0,1,84,87.28Zm166.37-.21a1.39,1.39,0,0,1,0-2h0a1.4,1.4,0,0,1,2,0h0a1.42,1.42,0,0,1,0,2h0a1.44,1.44,0,0,1-1,.39h0A1.43,1.43,0,0,1,250.34,87.07Zm2-2ZM91.85,79.74a1.39,1.39,0,0,1,.15-2h0a1.37,1.37,0,0,1,2,.15h0a1.41,1.41,0,0,1-.16,2h0a1.4,1.4,0,0,1-.91.33h0A1.41,1.41,0,0,1,91.85,79.74Zm150.61,0h0a1.38,1.38,0,0,1-.17-2h0a1.37,1.37,0,0,1,2-.17h0a1.4,1.4,0,0,1,.17,2h0a1.39,1.39,0,0,1-1.08.49h0A1.38,1.38,0,0,1,242.46,79.73ZM100.39,73a1.41,1.41,0,0,1,.35-1.95h0a1.4,1.4,0,0,1,2,.35h0a1.38,1.38,0,0,1-.35,2h0a1.43,1.43,0,0,1-.81.25h0A1.43,1.43,0,0,1,100.39,73Zm133.52.2a1.4,1.4,0,0,1-.34-2h0a1.42,1.42,0,0,1,2-.35h0a1.41,1.41,0,0,1,.35,2h0a1.42,1.42,0,0,1-1.16.6h0A1.35,1.35,0,0,1,233.91,73.16ZM109.54,67a1.38,1.38,0,0,1,.52-1.9h0a1.4,1.4,0,0,1,1.92.51h0a1.42,1.42,0,0,1-.53,1.92h0a1.5,1.5,0,0,1-.69.17h0A1.39,1.39,0,0,1,109.54,67Zm115.25.41h0a1.42,1.42,0,0,1-.54-1.92h0a1.41,1.41,0,0,1,1.91-.53h0a1.4,1.4,0,0,1,.53,1.91h0a1.42,1.42,0,0,1-1.22.71h0A1.57,1.57,0,0,1,224.79,67.43ZM119.19,62a1.42,1.42,0,0,1,.7-1.86h0a1.42,1.42,0,0,1,1.87.72h0a1.4,1.4,0,0,1-.7,1.84h0a1.43,1.43,0,0,1-.59.13h0A1.42,1.42,0,0,1,119.19,62Zm96,.59a1.41,1.41,0,0,1-.7-1.85h0a1.4,1.4,0,0,1,1.85-.7h0a1.4,1.4,0,0,1,.71,1.85h0a1.41,1.41,0,0,1-1.28.83h0A1.39,1.39,0,0,1,215.18,62.55Zm-85.9-4.72a1.41,1.41,0,0,1,.88-1.78h0a1.4,1.4,0,0,1,1.78.87h0a1.4,1.4,0,0,1-.87,1.78h0a1.24,1.24,0,0,1-.46.08h0A1.4,1.4,0,0,1,129.28,57.83Zm75.88.79a1.39,1.39,0,0,1-.88-1.78h0a1.4,1.4,0,0,1,1.78-.87h0a1.4,1.4,0,0,1,.87,1.78h0a1.41,1.41,0,0,1-1.32.94h0A1.41,1.41,0,0,1,205.16,58.62Zm-65.44-3.95A1.42,1.42,0,0,1,140.77,53h0a1.39,1.39,0,0,1,1.68,1h0a1.39,1.39,0,0,1-1,1.68h0a1.17,1.17,0,0,1-.32,0h0A1.42,1.42,0,0,1,139.72,54.67Zm55.08,1h0A1.41,1.41,0,0,1,193.76,54h0a1.42,1.42,0,0,1,1.68-1.06h0a1.41,1.41,0,0,1,1,1.7h0a1.41,1.41,0,0,1-1.36,1.08h0A1.86,1.86,0,0,1,194.8,55.65Zm-44.4-3.14a1.44,1.44,0,0,1,1.19-1.59h0a1.4,1.4,0,0,1,1.59,1.2h0A1.39,1.39,0,0,1,152,53.7h-.2A1.4,1.4,0,0,1,150.4,52.51Zm33.82,1.15h0A1.39,1.39,0,0,1,183,52.09h0a1.4,1.4,0,0,1,1.57-1.21h0a1.44,1.44,0,0,1,1.2,1.59h0a1.41,1.41,0,0,1-1.39,1.2h-.2Zm-23-2.3a1.41,1.41,0,0,1,1.34-1.47h0a1.41,1.41,0,0,1,1.47,1.33h0a1.39,1.39,0,0,1-1.33,1.47h-.07A1.41,1.41,0,0,1,161.25,51.36Zm12.24,1.32a1.39,1.39,0,0,1-1.33-1.46h0a1.42,1.42,0,0,1,1.46-1.35h0A1.41,1.41,0,0,1,175,51.35h0a1.4,1.4,0,0,1-1.39,1.33h-.07Z" transform="translate(-0.48 0.34)"/><path d="M166.65,271.14a1.59,1.59,0,0,1,1.59-1.58h.22a1.6,1.6,0,0,1,1.59,1.57h0a1.58,1.58,0,0,1-1.57,1.58h-.24A1.58,1.58,0,0,1,166.65,271.14Zm-9.41,1a1.56,1.56,0,0,1-1.4-1.73h0a1.56,1.56,0,0,1,1.72-1.4h0a1.59,1.59,0,0,1,1.42,1.73h0a1.58,1.58,0,0,1-1.57,1.41h-.17Zm20.48-1.42a1.6,1.6,0,0,1,1.4-1.74h0a1.58,1.58,0,0,1,1.74,1.41h0a1.57,1.57,0,0,1-1.4,1.73h-.17A1.57,1.57,0,0,1,177.72,270.72Zm-31.35-.28a1.58,1.58,0,0,1-1.22-1.87h0a1.57,1.57,0,0,1,1.86-1.22h0a1.57,1.57,0,0,1,1.22,1.87h0a1.56,1.56,0,0,1-1.54,1.25h0A1.73,1.73,0,0,1,146.37,270.44Zm42.1-1.26a1.57,1.57,0,0,1,1.2-1.88h0a1.59,1.59,0,0,1,1.88,1.22h0a1.59,1.59,0,0,1-1.22,1.87h0a2,2,0,0,1-.32,0h0A1.57,1.57,0,0,1,188.47,269.18Zm-52.75-1.58h0a1.6,1.6,0,0,1-1-2h0a1.57,1.57,0,0,1,2-1h0a1.57,1.57,0,0,1,1,2h0a1.57,1.57,0,0,1-1.5,1.09h0A2.14,2.14,0,0,1,135.72,267.6ZM199,266.52a1.58,1.58,0,0,1,1-2h0a1.57,1.57,0,0,1,2,1h0a1.58,1.58,0,0,1-1,2h0a1.93,1.93,0,0,1-.49.07h0A1.59,1.59,0,0,1,199,266.52Zm-73.53-2.87a1.59,1.59,0,0,1-.8-2.09h0a1.59,1.59,0,0,1,2.09-.8h0a1.59,1.59,0,0,1,.8,2.09h0a1.59,1.59,0,0,1-1.45.94h0A1.89,1.89,0,0,1,125.44,263.65Zm83.72-.88a1.57,1.57,0,0,1,.78-2.09h0a1.58,1.58,0,0,1,2.09.78h0a1.58,1.58,0,0,1-.8,2.09h0a1.45,1.45,0,0,1-.64.14h0A1.56,1.56,0,0,1,209.16,262.77Zm-93.53-4.12v0h0a1.57,1.57,0,0,1-.57-2.14h0a1.57,1.57,0,0,1,2.16-.58h0a1.58,1.58,0,0,1,.57,2.15h0a1.6,1.6,0,0,1-1.37.8h0A1.64,1.64,0,0,1,115.63,258.65ZM218.88,258a1.59,1.59,0,0,1,.57-2.16h0a1.57,1.57,0,0,1,2.15.58h0a1.57,1.57,0,0,1-.56,2.14h0a1.53,1.53,0,0,1-.8.23h0A1.57,1.57,0,0,1,218.88,258ZM106.4,252.64a1.59,1.59,0,0,1-.35-2.2h0a1.56,1.56,0,0,1,2.2-.35h0a1.57,1.57,0,0,1,.35,2.2h0a1.56,1.56,0,0,1-1.27.64h0A1.67,1.67,0,0,1,106.4,252.64ZM228,252.16a1.56,1.56,0,0,1,.35-2.2h0a1.57,1.57,0,0,1,2.2.34h0a1.6,1.6,0,0,1-.35,2.21h0a1.58,1.58,0,0,1-.92.3h0A1.59,1.59,0,0,1,228,252.16ZM97.84,245.7a1.57,1.57,0,0,1-.11-2.22h0a1.57,1.57,0,0,1,2.23-.12h0a1.57,1.57,0,0,1,.11,2.22h0a1.57,1.57,0,0,1-1.18.53h0A1.62,1.62,0,0,1,97.84,245.7Zm138.72-.25a1.58,1.58,0,0,1,.11-2.23h0a1.58,1.58,0,0,1,2.23.12h0a1.59,1.59,0,0,1-.11,2.22h0a1.63,1.63,0,0,1-1.07.41h0A1.58,1.58,0,0,1,236.56,245.45ZM90.07,237.91a1.57,1.57,0,0,1,.11-2.22h0a1.55,1.55,0,0,1,2.21.12h0a1.57,1.57,0,0,1-.11,2.23h0a1.52,1.52,0,0,1-1,.39h0A1.53,1.53,0,0,1,90.07,237.91Zm154.26,0a1.59,1.59,0,0,1-.12-2.23h0a1.57,1.57,0,0,1,2.22-.11h0a1.59,1.59,0,0,1,.13,2.23h0a1.57,1.57,0,0,1-1.18.52h0A1.53,1.53,0,0,1,244.33,237.87Zm-161.21-8.5a1.59,1.59,0,0,1,.35-2.2h0a1.57,1.57,0,0,1,2.2.34h0a1.57,1.57,0,0,1-.35,2.21h0a1.65,1.65,0,0,1-.93.29h0A1.59,1.59,0,0,1,83.12,229.37Zm168.15.17a1.58,1.58,0,0,1-.35-2.2h0a1.59,1.59,0,0,1,2.21-.35h0a1.58,1.58,0,0,1,.35,2.2h0a1.61,1.61,0,0,1-1.29.66h0A1.52,1.52,0,0,1,251.27,229.54Zm-174.15-9.4A1.56,1.56,0,0,1,77.7,218h0a1.56,1.56,0,0,1,2.14.58h0a1.56,1.56,0,0,1-.57,2.14h0a1.4,1.4,0,0,1-.79.21h0A1.56,1.56,0,0,1,77.12,220.14Zm180.18.39a1.6,1.6,0,0,1-.57-2.16h0a1.57,1.57,0,0,1,2.16-.57h0a1.58,1.58,0,0,1,.57,2.15h0a1.56,1.56,0,0,1-1.36.79h0A1.65,1.65,0,0,1,257.3,220.53ZM72.11,210.33v0h0a1.58,1.58,0,0,1,.8-2.09h0a1.58,1.58,0,0,1,2.08.8h0a1.58,1.58,0,0,1-.79,2.08h0a1.68,1.68,0,0,1-.65.13h0A1.59,1.59,0,0,1,72.11,210.33Zm190.27.6a1.55,1.55,0,0,1-.8-2.07h0a1.57,1.57,0,0,1,2.07-.81h0a1.58,1.58,0,0,1,.8,2.08h0a1.57,1.57,0,0,1-1.44.94h0A1.6,1.6,0,0,1,262.38,210.93ZM68.16,200.06h0a1.58,1.58,0,0,1,1-2h0a1.6,1.6,0,0,1,2,1h0a1.59,1.59,0,0,1-1,2h0a1.48,1.48,0,0,1-.49.08h0A1.58,1.58,0,0,1,68.16,200.06Zm198.24.8a1.58,1.58,0,0,1-1-2h0a1.58,1.58,0,0,1,2-1h0a1.58,1.58,0,0,1,1,2h0a1.59,1.59,0,0,1-1.5,1.09h0A1.35,1.35,0,0,1,266.4,200.86ZM65.31,189.43a1.59,1.59,0,0,1,1.21-1.88h0a1.6,1.6,0,0,1,1.88,1.22h0a1.57,1.57,0,0,1-1.22,1.86h0a1.32,1.32,0,0,1-.32.05h0A1.59,1.59,0,0,1,65.31,189.43Zm204,1a1.58,1.58,0,0,1-1.22-1.87h0a1.57,1.57,0,0,1,1.86-1.22h0a1.57,1.57,0,0,1,1.22,1.86h0a1.62,1.62,0,0,1-1.56,1.26h0ZM63.59,178.54h0A1.59,1.59,0,0,1,65,176.82h0a1.56,1.56,0,0,1,1.72,1.4h0a1.57,1.57,0,0,1-1.4,1.73h-.17A1.58,1.58,0,0,1,63.59,178.54Zm207.58,1.18a1.57,1.57,0,0,1-1.41-1.72h0a1.6,1.6,0,0,1,1.74-1.42h0a1.6,1.6,0,0,1,1.4,1.74h0a1.59,1.59,0,0,1-1.57,1.42h0A.5.5,0,0,1,271.17,179.72ZM63,167.56A1.58,1.58,0,0,1,64.6,166h0a1.57,1.57,0,0,1,1.57,1.57h0a1.57,1.57,0,0,1-1.57,1.58h0A1.57,1.57,0,0,1,63,167.56Zm207.27-.24a1.57,1.57,0,0,1,1.58-1.56h0a1.55,1.55,0,0,1,1.57,1.56h0a1.57,1.57,0,0,1-1.57,1.59h0A1.6,1.6,0,0,1,270.29,167.32Zm-204.12.23ZM65,158.29a1.57,1.57,0,0,1-1.41-1.73h0a1.59,1.59,0,0,1,1.73-1.4h0a1.57,1.57,0,0,1,1.41,1.73h0a1.58,1.58,0,0,1-1.56,1.41H65Zm204.74-1.63a1.56,1.56,0,0,1,1.4-1.73h0a1.59,1.59,0,0,1,1.74,1.4h0a1.58,1.58,0,0,1-1.4,1.73h0a.5.5,0,0,1-.17,0h0A1.58,1.58,0,0,1,269.73,156.66Zm-203.22-9.1a1.59,1.59,0,0,1-1.22-1.88h0a1.56,1.56,0,0,1,1.86-1.2h0a1.56,1.56,0,0,1,1.22,1.86h0a1.57,1.57,0,0,1-1.54,1.24h0Zm201.54-1.45h0a1.57,1.57,0,0,1,1.22-1.86h0a1.56,1.56,0,0,1,1.86,1.21h0a1.57,1.57,0,0,1-1.2,1.87h0a2,2,0,0,1-.34,0h0A1.58,1.58,0,0,1,268.05,146.11ZM69.14,137a1.59,1.59,0,0,1-1-2h0a1.6,1.6,0,0,1,2-1h0a1.59,1.59,0,0,1,1,2h0a1.57,1.57,0,0,1-1.5,1.1h0A1.92,1.92,0,0,1,69.14,137Zm196.14-1.24a1.57,1.57,0,0,1,1-2h0a1.57,1.57,0,0,1,2,1h0a1.57,1.57,0,0,1-1,2h0a1.46,1.46,0,0,1-.49.09h0A1.6,1.6,0,0,1,265.28,135.8Zm-192.41-9a1.57,1.57,0,0,1-.8-2.07h0v0h0a1.58,1.58,0,0,1,2.07-.8h0a1.58,1.58,0,0,1,.8,2.09h0a1.55,1.55,0,0,1-1.43.94h0A1.45,1.45,0,0,1,72.87,126.84Zm188.57-1a1.56,1.56,0,0,1,.8-2.08h0a1.57,1.57,0,0,1,2.07.79h0a1.58,1.58,0,0,1-.78,2.08h0a1.56,1.56,0,0,1-.65.14h0A1.58,1.58,0,0,1,261.44,125.84ZM77.64,117.1a1.58,1.58,0,0,1-.57-2.16h0a1.59,1.59,0,0,1,2.16-.57h0a1.6,1.6,0,0,1,.57,2.16h0a1.59,1.59,0,0,1-1.37.78h0A1.64,1.64,0,0,1,77.64,117.1Zm178.92-.77a1.56,1.56,0,0,1,.58-2.14h0a1.58,1.58,0,0,1,2.16.56h0a1.58,1.58,0,0,1-.58,2.16h0a1.5,1.5,0,0,1-.78.21h0A1.59,1.59,0,0,1,256.56,116.33ZM83.41,107.91a1.59,1.59,0,0,1-.35-2.2h0a1.59,1.59,0,0,1,2.2-.35h0a1.57,1.57,0,0,1,.35,2.2h0a1.52,1.52,0,0,1-1.27.66h0A1.55,1.55,0,0,1,83.41,107.91Zm167.33-.52h0a1.57,1.57,0,0,1,.33-2.2h0a1.58,1.58,0,0,1,2.2.34h0a1.58,1.58,0,0,1-.33,2.21h0a1.63,1.63,0,0,1-.93.3h0A1.56,1.56,0,0,1,250.74,107.39Zm-160.63-8A1.58,1.58,0,0,1,90,97.15h0A1.58,1.58,0,0,1,92.23,97h0a1.57,1.57,0,0,1,.11,2.21v0a1.63,1.63,0,0,1-1.18.52h0A1.58,1.58,0,0,1,90.11,99.38ZM244,99.1a1.57,1.57,0,0,1,.11-2.23h0a1.59,1.59,0,0,1,2.23.12h0a1.58,1.58,0,0,1-.12,2.22h0a1.54,1.54,0,0,1-1.06.41h0A1.55,1.55,0,0,1,244,99.1ZM97.66,91.59a1.58,1.58,0,0,1,.11-2.23h0a1.58,1.58,0,0,1,2.23.12h0a1.57,1.57,0,0,1-.11,2.22h0a1.63,1.63,0,0,1-1.07.41h0A1.58,1.58,0,0,1,97.66,91.59Zm138.77,0a1.56,1.56,0,0,1-.12-2.22h0a1.58,1.58,0,0,1,2.22-.13h0a1.59,1.59,0,0,1,.13,2.23h0a1.58,1.58,0,0,1-1.18.53h0A1.56,1.56,0,0,1,236.43,91.56ZM106,84.63a1.58,1.58,0,0,1,.35-2.2h0a1.57,1.57,0,0,1,2.2.34h0a1.57,1.57,0,0,1-.34,2.2h0a1.52,1.52,0,0,1-.93.3h0A1.59,1.59,0,0,1,106,84.63Zm122.16.21a1.55,1.55,0,0,1-.35-2.2h0a1.58,1.58,0,0,1,2.19-.35h0a1.58,1.58,0,0,1,.35,2.2h0a1.54,1.54,0,0,1-1.27.66h0A1.5,1.5,0,0,1,228.13,84.84ZM115,78.56a1.56,1.56,0,0,1,.56-2.15h0a1.56,1.56,0,0,1,2.15.57h0a1.57,1.57,0,0,1-.57,2.16h0a1.61,1.61,0,0,1-.79.21h0A1.53,1.53,0,0,1,115,78.56ZM219.16,79h0a1.57,1.57,0,0,1-.58-2.15h0a1.6,1.6,0,0,1,2.16-.59h0a1.6,1.6,0,0,1,.58,2.16h0a1.59,1.59,0,0,1-1.38.79h0A1.6,1.6,0,0,1,219.16,79Zm-94.62-5.55a1.59,1.59,0,0,1,.8-2.09h0a1.59,1.59,0,0,1,2.09.8h0a1.59,1.59,0,0,1-.8,2.09h0a1.48,1.48,0,0,1-.64.14h0A1.59,1.59,0,0,1,124.54,73.48Zm85.11.7a1.57,1.57,0,0,1-.82-2.07h0a1.59,1.59,0,0,1,2.09-.8h0a1.56,1.56,0,0,1,.8,2.07h0a1.59,1.59,0,0,1-1.44.94h0A1.38,1.38,0,0,1,209.65,74.18Zm-75-4.75a1.56,1.56,0,0,1,1-2h0a1.56,1.56,0,0,1,2,1h0a1.57,1.57,0,0,1-1,2h0a1.93,1.93,0,0,1-.49.07h0A1.55,1.55,0,0,1,134.62,69.43Zm65,.94h0a1.57,1.57,0,0,1-1-2h0a1.58,1.58,0,0,1,2-1h0a1.57,1.57,0,0,1,1,2h0a1.56,1.56,0,0,1-1.5,1.09h0A1.45,1.45,0,0,1,199.66,70.37ZM145,66.46a1.59,1.59,0,0,1,1.22-1.88h0a1.58,1.58,0,0,1,1.86,1.22h0a1.57,1.57,0,0,1-1.2,1.86h0a1.13,1.13,0,0,1-.32,0h0A1.58,1.58,0,0,1,145,66.46Zm44.31,1.16a1.57,1.57,0,0,1-1.22-1.86h0A1.57,1.57,0,0,1,190,64.54h0a1.56,1.56,0,0,1,1.22,1.86h0a1.56,1.56,0,0,1-1.54,1.25h0A1.66,1.66,0,0,1,189.35,67.62Zm-33.62-3a1.57,1.57,0,0,1,1.4-1.74h0a1.6,1.6,0,0,1,1.74,1.41h0A1.59,1.59,0,0,1,157.45,66h-.17A1.57,1.57,0,0,1,155.73,64.6ZM178.79,66h0a1.56,1.56,0,0,1-1.41-1.72h0a1.57,1.57,0,0,1,1.73-1.4h0a1.56,1.56,0,0,1,1.41,1.72h0A1.57,1.57,0,0,1,179,66h-.16Zm-12.25-2.1a1.57,1.57,0,0,1,1.57-1.58h0a1.57,1.57,0,0,1,1.57,1.56h0a1.58,1.58,0,0,1-1.57,1.59h0A1.58,1.58,0,0,1,166.54,63.87Z" transform="translate(-0.48 0.34)"/><path d="M168.38,260.17a.34.34,0,0,1-.14,0h0a1.75,1.75,0,0,1-1.75-1.75h0a1.75,1.75,0,0,1,1.75-1.75h.26a1.73,1.73,0,0,1,1.75,1.73h0a1.75,1.75,0,0,1-1.73,1.77h0A.3.3,0,0,1,168.38,260.17Zm-11.1-.63a1.75,1.75,0,0,1-1.54-1.94h0a1.76,1.76,0,0,1,1.95-1.53h0a1.76,1.76,0,0,1,1.54,1.95h0a1.77,1.77,0,0,1-1.75,1.54h0A.68.68,0,0,1,157.28,259.54ZM177.51,258a1.77,1.77,0,0,1,1.54-2h0a1.76,1.76,0,0,1,1.95,1.54h0a1.78,1.78,0,0,1-1.53,1.95h-.21A1.77,1.77,0,0,1,177.51,258Zm-31-.38h0a1.75,1.75,0,0,1-1.29-2.11h0a1.74,1.74,0,0,1,2.11-1.3h0a1.75,1.75,0,0,1,1.29,2.11h0a1.76,1.76,0,0,1-1.69,1.35h0A1.52,1.52,0,0,1,146.47,257.61Zm41.69-1.35a1.73,1.73,0,0,1,1.27-2.11h0a1.76,1.76,0,0,1,2.11,1.29h0a1.75,1.75,0,0,1-1.29,2.11h0a2,2,0,0,1-.42.05h0A1.75,1.75,0,0,1,188.16,256.26ZM136,254.42a1.74,1.74,0,0,1-1-2.26h0a1.75,1.75,0,0,1,2.24-1h0a1.77,1.77,0,0,1,1,2.26h0a1.78,1.78,0,0,1-1.64,1.15h0A1.93,1.93,0,0,1,136,254.42Zm62.55-1.12a1.75,1.75,0,0,1,1-2.26h0a1.76,1.76,0,0,1,2.26,1h0a1.77,1.77,0,0,1-1,2.26h0a2,2,0,0,1-.62.11h0A1.74,1.74,0,0,1,198.51,253.3ZM125.92,250a1.74,1.74,0,0,1-.76-2.36h0a1.76,1.76,0,0,1,2.35-.75h0a1.73,1.73,0,0,1,.76,2.35h0a1.71,1.71,0,0,1-1.55.95h0A1.63,1.63,0,0,1,125.92,250Zm82.51-.87a1.77,1.77,0,0,1,.76-2.37h0a1.76,1.76,0,0,1,2.35.76h0a1.75,1.75,0,0,1-.74,2.36h0a1.82,1.82,0,0,1-.8.2h0A1.77,1.77,0,0,1,208.43,249.11Zm-92-4.72A1.74,1.74,0,0,1,116,242h0a1.72,1.72,0,0,1,2.42-.47h0a1.76,1.76,0,0,1,.48,2.43h0a1.81,1.81,0,0,1-1.46.77h0A1.73,1.73,0,0,1,116.46,244.39Zm101.33-.61a1.74,1.74,0,0,1,.46-2.43h0a1.75,1.75,0,0,1,2.44.46h0a1.77,1.77,0,0,1-.47,2.44h0a1.68,1.68,0,0,1-1,.29h0A1.75,1.75,0,0,1,217.79,243.78Zm-110-6.06h0a1.76,1.76,0,0,1-.2-2.48h0a1.77,1.77,0,0,1,2.48-.18h0a1.75,1.75,0,0,1,.18,2.47h0a1.77,1.77,0,0,1-1.33.61h0A1.68,1.68,0,0,1,107.75,237.72Zm118.71-.34a1.72,1.72,0,0,1,.17-2.46h0a1.76,1.76,0,0,1,2.48.16h0a1.76,1.76,0,0,1-.19,2.47h0a1.77,1.77,0,0,1-1.14.42h0A1.73,1.73,0,0,1,226.46,237.38Zm-126.6-7.3h0a1.77,1.77,0,0,1,.11-2.48h0a1.73,1.73,0,0,1,2.47.12h0a1.73,1.73,0,0,1-.1,2.46h0a1.75,1.75,0,0,1-1.19.46h0A1.75,1.75,0,0,1,99.86,230.08ZM234.3,230a1.74,1.74,0,0,1-.11-2.47h0a1.76,1.76,0,0,1,2.48-.11h0a1.75,1.75,0,0,1,.11,2.47h0a1.75,1.75,0,0,1-1.3.57h0A1.74,1.74,0,0,1,234.3,230ZM92.94,221.57h0a1.79,1.79,0,0,1,.39-2.46h0a1.77,1.77,0,0,1,2.45.41h0a1.76,1.76,0,0,1-.4,2.44h0a1.74,1.74,0,0,1-1,.33h0A1.76,1.76,0,0,1,92.94,221.57Zm148.3.19a1.76,1.76,0,0,1-.41-2.45h0a1.76,1.76,0,0,1,2.44-.41h0a1.76,1.76,0,0,1,.42,2.46h0a1.74,1.74,0,0,1-1.42.72h0A1.75,1.75,0,0,1,241.24,221.76ZM87.07,212.29a1.73,1.73,0,0,1,.69-2.38h0a1.75,1.75,0,0,1,2.38.69h0a1.77,1.77,0,0,1-.69,2.38h0a1.8,1.8,0,0,1-.84.21h0A1.76,1.76,0,0,1,87.07,212.29Zm160.08.46a1.74,1.74,0,0,1-.69-2.38h0a1.73,1.73,0,0,1,2.37-.68h0a1.74,1.74,0,0,1,.7,2.36h0A1.74,1.74,0,0,1,248,213h0A1.8,1.8,0,0,1,247.15,212.75ZM82.34,202.39h0a1.76,1.76,0,0,1,1-2.29h0a1.76,1.76,0,0,1,2.29,1h0a1.75,1.75,0,0,1-1,2.28h0a1.65,1.65,0,0,1-.66.13h0A1.75,1.75,0,0,1,82.34,202.39ZM252,203.1a1.75,1.75,0,0,1-1-2.28h0a1.75,1.75,0,0,1,2.28-1h0a1.76,1.76,0,0,1,1,2.29h0a1.78,1.78,0,0,1-1.63,1.09h0A1.69,1.69,0,0,1,252,203.1ZM78.82,192h0a1.75,1.75,0,0,1,1.23-2.15h0a1.73,1.73,0,0,1,2.14,1.23h0A1.73,1.73,0,0,1,81,193.21h0a1.83,1.83,0,0,1-.46.07h0A1.75,1.75,0,0,1,78.82,192Zm176.76,1a1.73,1.73,0,0,1-1.23-2.15h0a1.75,1.75,0,0,1,2.14-1.23h0a1.76,1.76,0,0,1,1.24,2.14h0A1.77,1.77,0,0,1,256,193h0A1.9,1.9,0,0,1,255.58,193Zm-179-11.7h0a1.76,1.76,0,0,1,1.47-2h0a1.75,1.75,0,0,1,2,1.47h0a1.74,1.74,0,0,1-1.47,2h0a2.06,2.06,0,0,1-.26,0h0A1.75,1.75,0,0,1,76.56,181.25Zm181.4,1.2a1.76,1.76,0,0,1-1.48-2h0a1.76,1.76,0,0,1,2-1.48h0a1.76,1.76,0,0,1,1.48,2h0a1.75,1.75,0,0,1-1.73,1.5h0A1.14,1.14,0,0,1,258,182.45ZM75.58,170.32a1.78,1.78,0,0,1,1.71-1.81h0a1.75,1.75,0,0,1,1.8,1.7h0a1.76,1.76,0,0,1-1.7,1.81h-.06A1.78,1.78,0,0,1,75.58,170.32Zm183.5,1.42a1.74,1.74,0,0,1-1.69-1.8h0a1.75,1.75,0,0,1,1.79-1.71h0a1.75,1.75,0,0,1,1.71,1.8h0a1.76,1.76,0,0,1-1.75,1.71h-.06ZM77.49,161.24a1.73,1.73,0,0,1-1.58-1.89h0a1.74,1.74,0,0,1,1.89-1.59h0a1.74,1.74,0,0,1,1.59,1.89h0a1.74,1.74,0,0,1-1.75,1.59h-.15Zm179.56-1.86a1.75,1.75,0,0,1,1.59-1.9h0a1.75,1.75,0,0,1,1.9,1.58h0A1.74,1.74,0,0,1,259,161h0l-.16,0h0A1.76,1.76,0,0,1,257.05,159.38ZM78.86,150.55a1.75,1.75,0,0,1-1.36-2.07h0a1.77,1.77,0,0,1,2.08-1.36h0a1.78,1.78,0,0,1,1.35,2.08h0a1.77,1.77,0,0,1-1.7,1.4h0A1.44,1.44,0,0,1,78.86,150.55Zm176.62-1.62h0a1.76,1.76,0,0,1,1.35-2.07h0a1.76,1.76,0,0,1,2.09,1.36h0a1.77,1.77,0,0,1-1.36,2.07h0a1.46,1.46,0,0,1-.37,0h0A1.74,1.74,0,0,1,255.48,148.93Zm-174-8.83a1.77,1.77,0,0,1-1.11-2.22h0a1.78,1.78,0,0,1,2.23-1.1h0A1.75,1.75,0,0,1,83.69,139h0A1.73,1.73,0,0,1,82,140.19h0A1.82,1.82,0,0,1,81.48,140.1Zm171.2-1.35h0a1.75,1.75,0,0,1,1.09-2.22h0a1.74,1.74,0,0,1,2.23,1.1h0a1.74,1.74,0,0,1-1.09,2.21h0a1.58,1.58,0,0,1-.56.1h0A1.79,1.79,0,0,1,252.68,138.75ZM85.33,130a1.72,1.72,0,0,1-.82-2.32h0a1.72,1.72,0,0,1,2.32-.83h0a1.74,1.74,0,0,1,.83,2.33h0a1.74,1.74,0,0,1-1.57,1h0A1.59,1.59,0,0,1,85.33,130ZM248.69,129a1.75,1.75,0,0,1,.83-2.33h0a1.76,1.76,0,0,1,2.34.82h0a1.77,1.77,0,0,1-.83,2.33h0a1.75,1.75,0,0,1-.76.17h0A1.74,1.74,0,0,1,248.69,129ZM90.35,120.51a1.77,1.77,0,0,1-.55-2.43h0a1.77,1.77,0,0,1,2.43-.54h0a1.75,1.75,0,0,1,.53,2.42h0a1.77,1.77,0,0,1-1.48.81h0A1.78,1.78,0,0,1,90.35,120.51Zm153.23-.77h0a1.74,1.74,0,0,1,.53-2.41h0a1.75,1.75,0,0,1,2.41.53h0a1.76,1.76,0,0,1-.54,2.42h0a1.82,1.82,0,0,1-.94.27h0A1.7,1.7,0,0,1,243.58,119.74ZM96.46,111.62a1.75,1.75,0,0,1-.26-2.46h0a1.76,1.76,0,0,1,2.47-.25h0a1.75,1.75,0,0,1,.25,2.46h0a1.77,1.77,0,0,1-1.36.65h0A1.7,1.7,0,0,1,96.46,111.62Zm140.92-.44a1.77,1.77,0,0,1,.26-2.47h0a1.74,1.74,0,0,1,2.46.25h0a1.74,1.74,0,0,1-.25,2.47h0a1.69,1.69,0,0,1-1.11.39h0A1.78,1.78,0,0,1,237.38,111.18Zm-133.81-7.64a1.76,1.76,0,0,1,0-2.48h0a1.75,1.75,0,0,1,2.47,0h0a1.76,1.76,0,0,1,0,2.48h0a1.68,1.68,0,0,1-1.22.49h0A1.75,1.75,0,0,1,103.57,103.54Zm126.67-.14h0a1.75,1.75,0,0,1,0-2.48h0a1.75,1.75,0,0,1,2.48,0h0a1.77,1.77,0,0,1,0,2.48h0a1.77,1.77,0,0,1-1.26.53h0A1.79,1.79,0,0,1,230.24,103.4ZM111.59,96.34a1.75,1.75,0,0,1,.32-2.46h0a1.76,1.76,0,0,1,2.46.33h0a1.75,1.75,0,0,1-.33,2.45h0A1.76,1.76,0,0,1,113,97h0A1.75,1.75,0,0,1,111.59,96.34Zm110.64.17a1.74,1.74,0,0,1-.32-2.45h0a1.74,1.74,0,0,1,2.45-.34h0a1.74,1.74,0,0,1,.32,2.45h0a1.69,1.69,0,0,1-1.39.7h0A1.74,1.74,0,0,1,222.23,96.51ZM120.38,90.14a1.76,1.76,0,0,1,.62-2.4h0a1.74,1.74,0,0,1,2.39.6h0a1.73,1.73,0,0,1-.6,2.4h0a1.72,1.72,0,0,1-.89.25h0A1.79,1.79,0,0,1,120.38,90.14Zm93.08.47h0a1.75,1.75,0,0,1-.62-2.39h0a1.76,1.76,0,0,1,2.4-.62h0a1.73,1.73,0,0,1,.61,2.4h0a1.72,1.72,0,0,1-1.5.86h0A1.72,1.72,0,0,1,213.46,90.61ZM129.87,85a1.73,1.73,0,0,1,.88-2.31h0a1.75,1.75,0,0,1,2.31.89h0a1.76,1.76,0,0,1-.89,2.32h0a2,2,0,0,1-.71.15h0A1.72,1.72,0,0,1,129.87,85Zm74.19.78h0a1.75,1.75,0,0,1-.9-2.3h0a1.74,1.74,0,0,1,2.3-.89h0a1.74,1.74,0,0,1,.91,2.3h0a1.78,1.78,0,0,1-1.61,1h0A1.71,1.71,0,0,1,204.06,85.79Zm-64.18-4.73a1.74,1.74,0,0,1,1.17-2.19h0A1.74,1.74,0,0,1,143.23,80h0a1.77,1.77,0,0,1-1.16,2.2h0a2.32,2.32,0,0,1-.52.07h0A1.76,1.76,0,0,1,139.88,81.06Zm54.26,1.08A1.75,1.75,0,0,1,193,80h0a1.73,1.73,0,0,1,2.18-1.16h0A1.73,1.73,0,0,1,196.33,81h0a1.75,1.75,0,0,1-1.67,1.25h0A2.4,2.4,0,0,1,194.14,82.14Zm-43.85-3.83a1.75,1.75,0,0,1,1.42-2h0a1.75,1.75,0,0,1,2,1.42h0a1.74,1.74,0,0,1-1.4,2h0l-.32,0h0A1.75,1.75,0,0,1,150.29,78.31Zm33.58,1.37a1.74,1.74,0,0,1-1.41-2h0a1.76,1.76,0,0,1,2-1.43h0a1.76,1.76,0,0,1,1.41,2h0a1.74,1.74,0,0,1-1.72,1.44h0A1.67,1.67,0,0,1,183.87,79.68ZM161,76.83A1.73,1.73,0,0,1,162.61,75h0a1.77,1.77,0,0,1,1.86,1.64h0a1.79,1.79,0,0,1-1.65,1.86h-.1A1.74,1.74,0,0,1,161,76.83Zm12.41,1.62a1.73,1.73,0,0,1-1.64-1.83h0A1.76,1.76,0,0,1,173.59,75h0a1.77,1.77,0,0,1,1.66,1.85h0a1.77,1.77,0,0,1-1.75,1.66h0A.2.2,0,0,1,173.38,78.45Z" transform="translate(-0.48 0.34)"/><path d="M168.39,247.65h-.15a1.93,1.93,0,0,1-1.94-1.93h0a1.93,1.93,0,0,1,1.94-1.92h.29a1.92,1.92,0,0,1,1.94,1.91h0a1.94,1.94,0,0,1-1.92,1.94h-.16Zm-11.06-.73h0a1.93,1.93,0,0,1-1.66-2.17h0a1.93,1.93,0,0,1,2.17-1.64h0a1.92,1.92,0,0,1,1.66,2.16h0a1.94,1.94,0,0,1-1.91,1.67h0A1.18,1.18,0,0,1,157.33,246.92Zm19.94-1.68a1.93,1.93,0,0,1,1.64-2.17h0a2,2,0,0,1,2.19,1.64h0a1.93,1.93,0,0,1-1.64,2.17h-.28A1.92,1.92,0,0,1,177.27,245.24Zm-30.65-.53a1.93,1.93,0,0,1-1.34-2.37h0a2,2,0,0,1,2.38-1.34h0a1.93,1.93,0,0,1,1.33,2.38h0a1.93,1.93,0,0,1-1.85,1.4h0A1.86,1.86,0,0,1,146.62,244.71Zm41.15-1.42a1.9,1.9,0,0,1,1.33-2.36h0a1.92,1.92,0,0,1,2.38,1.31h0a1.93,1.93,0,0,1-1.33,2.38h0a1.55,1.55,0,0,1-.52.07h0A1.93,1.93,0,0,1,187.77,243.29Zm-51.46-2.24a1.93,1.93,0,0,1-1-2.53h0a1.94,1.94,0,0,1,2.54-1h0a1.93,1.93,0,0,1,1,2.54h0a2,2,0,0,1-1.78,1.15h0A2,2,0,0,1,136.31,241.05Zm61.6-1.12a1.91,1.91,0,0,1,1-2.53h0a1.93,1.93,0,0,1,2.55,1h0a1.94,1.94,0,0,1-1,2.54h0a1.92,1.92,0,0,1-.77.15h0A1.9,1.9,0,0,1,197.91,239.93ZM126.59,236a1.93,1.93,0,0,1-.63-2.65h0a1.9,1.9,0,0,1,2.63-.64h0a1.91,1.91,0,0,1,.65,2.64h0a1.88,1.88,0,0,1-1.64.93h0A1.86,1.86,0,0,1,126.59,236Zm80.89-.79a1.92,1.92,0,0,1,.63-2.64h0a1.91,1.91,0,0,1,2.64.63h0a1.9,1.9,0,0,1-.63,2.64h0a1.79,1.79,0,0,1-1,.29h0A1.92,1.92,0,0,1,207.48,235.22Zm-89.81-5.53h0a1.9,1.9,0,0,1-.28-2.7h0a1.9,1.9,0,0,1,2.7-.28h0a1.94,1.94,0,0,1,.27,2.72h0a1.91,1.91,0,0,1-1.49.7h0A1.9,1.9,0,0,1,117.67,229.69Zm98.65-.45a1.92,1.92,0,0,1,.26-2.7h0a1.93,1.93,0,0,1,2.72.27h0a1.93,1.93,0,0,1-.27,2.71h0a1.91,1.91,0,0,1-1.22.44h0A1.93,1.93,0,0,1,216.32,229.24Zm-106.65-7a1.92,1.92,0,0,1,.1-2.73h0a1.92,1.92,0,0,1,2.71.09h0a1.93,1.93,0,0,1-.08,2.72h0a2,2,0,0,1-1.32.52h0A1.93,1.93,0,0,1,109.67,222.24Zm114.6-.11a1.93,1.93,0,0,1-.1-2.72h0a1.91,1.91,0,0,1,2.72-.1h0A1.91,1.91,0,0,1,227,222h0a2,2,0,0,1-1.41.61h0A1.88,1.88,0,0,1,224.27,222.13Zm-121.51-8.37a1.93,1.93,0,0,1,.46-2.69h0a1.94,1.94,0,0,1,2.69.47h0a1.93,1.93,0,0,1-.46,2.68h0a1.94,1.94,0,0,1-1.12.36h0A1.94,1.94,0,0,1,102.76,213.76Zm128.43.23a1.92,1.92,0,0,1-.47-2.68h0a1.92,1.92,0,0,1,2.69-.46h0a1.91,1.91,0,0,1,.46,2.67h0a1.9,1.9,0,0,1-1.57.82h0A2,2,0,0,1,231.19,214ZM97.07,204.43h0a1.93,1.93,0,0,1,.82-2.6h0a1.94,1.94,0,0,1,2.6.82h0a1.91,1.91,0,0,1-.83,2.59h0a1.75,1.75,0,0,1-.88.23h0A1.92,1.92,0,0,1,97.07,204.43Zm139.87.56a1.93,1.93,0,0,1-.83-2.59h0a1.92,1.92,0,0,1,2.59-.83h0a1.93,1.93,0,0,1,.84,2.6h0a2,2,0,0,1-1.72,1h0A2,2,0,0,1,236.94,205ZM92.7,194.4h0A1.91,1.91,0,0,1,93.86,192h0a1.93,1.93,0,0,1,2.47,1.16h0a1.92,1.92,0,0,1-1.16,2.45h0a1.74,1.74,0,0,1-.66.12h0A1.92,1.92,0,0,1,92.7,194.4Zm148.72.9a1.93,1.93,0,0,1-1.18-2.47h0a1.93,1.93,0,0,1,2.45-1.17h0a1.92,1.92,0,0,1,1.18,2.46h0a1.93,1.93,0,0,1-1.82,1.29h0A2,2,0,0,1,241.42,195.3ZM89.75,183.87a1.92,1.92,0,0,1,1.5-2.27h0a1.9,1.9,0,0,1,2.26,1.5h0A1.9,1.9,0,0,1,92,185.37h0a2.85,2.85,0,0,1-.41,0h0A1.93,1.93,0,0,1,89.75,183.87Zm154.76,1.2A1.93,1.93,0,0,1,243,182.8h0a2,2,0,0,1,2.29-1.51h0a1.93,1.93,0,0,1,1.49,2.28h0a1.93,1.93,0,0,1-1.89,1.54h0A1.69,1.69,0,0,1,244.51,185.07ZM88.26,173a1.92,1.92,0,0,1,1.79-2h0a1.93,1.93,0,0,1,2.06,1.78h0a1.92,1.92,0,0,1-1.78,2.06h-.14A1.92,1.92,0,0,1,88.26,173Zm157.92,1.48a1.92,1.92,0,0,1-1.79-2h0a1.92,1.92,0,0,1,2-1.79h0a1.93,1.93,0,0,1,1.8,2h0a1.93,1.93,0,0,1-1.92,1.81h0ZM90.05,164.16a1.93,1.93,0,0,1-1.8-2h0a1.93,1.93,0,0,1,2.06-1.79h0a1.93,1.93,0,0,1,1.79,2.05h0a1.94,1.94,0,0,1-1.92,1.8h-.13Zm154.3-2.09a1.93,1.93,0,0,1,1.79-2.06h0a1.94,1.94,0,0,1,2.06,1.79h0a1.93,1.93,0,0,1-1.79,2h-.14A1.94,1.94,0,0,1,244.35,162.07ZM91.22,153.55a1.92,1.92,0,0,1-1.5-2.27h0a1.93,1.93,0,0,1,2.27-1.5h0a1.93,1.93,0,0,1,1.5,2.28h0a1.93,1.93,0,0,1-1.89,1.54h0A1.58,1.58,0,0,1,91.22,153.55Zm151.7-1.79a1.92,1.92,0,0,1,1.48-2.28h0a1.94,1.94,0,0,1,2.29,1.48h0a1.92,1.92,0,0,1-1.49,2.28h0a1.81,1.81,0,0,1-.39,0h0A1.92,1.92,0,0,1,242.92,151.76Zm-149.1-8.57a1.92,1.92,0,0,1-1.17-2.46h0a1.93,1.93,0,0,1,2.46-1.17h0A1.94,1.94,0,0,1,96.29,142h0a1.92,1.92,0,0,1-1.82,1.28h0A1.85,1.85,0,0,1,93.82,143.19Zm146.27-1.45h0a1.93,1.93,0,0,1,1.16-2.46h0a2,2,0,0,1,2.47,1.16h0a1.94,1.94,0,0,1-1.17,2.47h0a1.8,1.8,0,0,1-.64.11h0A1.92,1.92,0,0,1,240.09,141.74ZM97.83,133.28a1.92,1.92,0,0,1-.83-2.59h0a1.94,1.94,0,0,1,2.6-.83h0a1.93,1.93,0,0,1,.82,2.6h0a1.92,1.92,0,0,1-1.71,1h0A1.78,1.78,0,0,1,97.83,133.28Zm138.08-1.06v0a1.92,1.92,0,0,1,.82-2.59h0a1.94,1.94,0,0,1,2.6.81h0a1.94,1.94,0,0,1-.81,2.61h0a2.08,2.08,0,0,1-.9.21h0A2,2,0,0,1,235.91,132.22ZM103.15,124a1.9,1.9,0,0,1-.46-2.67h0a1.92,1.92,0,0,1,2.68-.47h0a1.93,1.93,0,0,1,.46,2.68h0a1.93,1.93,0,0,1-1.57.83h0A1.94,1.94,0,0,1,103.15,124Zm127.33-.68a1.92,1.92,0,0,1,.45-2.69h0a1.93,1.93,0,0,1,2.69.46h0a2,2,0,0,1-.45,2.69h0a2,2,0,0,1-1.12.35h0A1.91,1.91,0,0,1,230.48,123.34Zm-120.8-7.76a1.92,1.92,0,0,1-.1-2.72h0a1.93,1.93,0,0,1,2.72-.1h0a1.91,1.91,0,0,1,.1,2.72h0a2,2,0,0,1-1.42.61h0A1.88,1.88,0,0,1,109.68,115.58Zm114.2-.3a1.93,1.93,0,0,1,.08-2.72h0a1.93,1.93,0,0,1,2.74.09h0a1.91,1.91,0,0,1-.09,2.71h0a2,2,0,0,1-1.31.54h0A1.93,1.93,0,0,1,223.88,115.28Zm-106.59-7.19a1.92,1.92,0,0,1,.28-2.71h0a1.9,1.9,0,0,1,2.7.28h0a1.92,1.92,0,0,1-.27,2.7h0a1.88,1.88,0,0,1-1.21.44h0A1.92,1.92,0,0,1,117.29,108.09Zm99,.1h0a1.91,1.91,0,0,1-.28-2.7h0a1.93,1.93,0,0,1,2.7-.3h0a1.93,1.93,0,0,1,.28,2.72h0a1.92,1.92,0,0,1-1.5.72h0A1.84,1.84,0,0,1,216.26,108.19Zm-90.43-6.48a1.94,1.94,0,0,1,.65-2.65h0a1.91,1.91,0,0,1,2.64.64h0a1.92,1.92,0,0,1-.64,2.65h0a2,2,0,0,1-1,.28h0A2,2,0,0,1,125.83,101.71Zm81.91.49a1.92,1.92,0,0,1-.64-2.65h0a2,2,0,0,1,2.65-.65h0a1.93,1.93,0,0,1,.64,2.65h0a1.91,1.91,0,0,1-1.65.93h0A1.92,1.92,0,0,1,207.74,102.2Zm-72.56-5.65a1.94,1.94,0,0,1,1-2.55h0a1.94,1.94,0,0,1,2.54,1h0a1.94,1.94,0,0,1-1,2.54h0a2.24,2.24,0,0,1-.77.15h0A1.9,1.9,0,0,1,135.18,96.55Zm63.32.87h0a1.92,1.92,0,0,1-1-2.52h0a1.92,1.92,0,0,1,2.53-1h0a1.92,1.92,0,0,1,1,2.54h0a1.93,1.93,0,0,1-1.77,1.14h0A1.77,1.77,0,0,1,198.5,97.42ZM145.14,92.7a1.91,1.91,0,0,1,1.33-2.37h0a1.94,1.94,0,0,1,2.38,1.33h0A1.94,1.94,0,0,1,147.5,94h0a1.63,1.63,0,0,1-.53.08h0A1.93,1.93,0,0,1,145.14,92.7ZM188.68,94a1.91,1.91,0,0,1-1.35-2.37h0a1.91,1.91,0,0,1,2.37-1.34h0A1.93,1.93,0,0,1,191,92.62h0A1.91,1.91,0,0,1,189.18,94h0A2.08,2.08,0,0,1,188.68,94Zm-33.15-3.7a1.93,1.93,0,0,1,1.64-2.17h0a1.92,1.92,0,0,1,2.17,1.65h0a1.92,1.92,0,0,1-1.64,2.17h0a1.14,1.14,0,0,1-.26,0h0A1.92,1.92,0,0,1,155.53,90.26Zm22.95,1.61a1.92,1.92,0,0,1-1.65-2.17h0A1.91,1.91,0,0,1,179,88.05h0a2,2,0,0,1,1.66,2.17h0a1.93,1.93,0,0,1-1.91,1.67h0A1.06,1.06,0,0,1,178.48,91.87Zm-10.4-.68a1.94,1.94,0,0,1-1.93-1.92h0a1.94,1.94,0,0,1,1.93-1.94h0A1.94,1.94,0,0,1,170,89.27h0a1.92,1.92,0,0,1-1.92,1.92Zm0-3.86Z" transform="translate(-0.48 0.34)"/><path d="M166.14,233a2.1,2.1,0,0,1,2.1-2.1h.11l.15,0h0a2.12,2.12,0,0,1,2.12,2.1h0a2.1,2.1,0,0,1-2.1,2.11h-.28A2.11,2.11,0,0,1,166.14,233Zm-9,1.18h0a2.11,2.11,0,0,1-1.73-2.41h0a2.11,2.11,0,0,1,2.42-1.74h0a2.1,2.1,0,0,1,1.72,2.42h0a2.09,2.09,0,0,1-2.06,1.77h0A2.21,2.21,0,0,1,157.11,234.22Zm20.11-1.77a2.09,2.09,0,0,1,1.72-2.42h0a2.1,2.1,0,0,1,2.42,1.72h0a2.08,2.08,0,0,1-1.72,2.42h0a1.38,1.38,0,0,1-.35,0h0A2.09,2.09,0,0,1,177.22,232.45Zm-30.94-.95a2.13,2.13,0,0,1-1.3-2.68h0a2.09,2.09,0,0,1,2.66-1.3h0a2.1,2.1,0,0,1,1.32,2.66h0a2.13,2.13,0,0,1-2,1.43h0A2.42,2.42,0,0,1,146.28,231.5Zm41.5-1.4a2.12,2.12,0,0,1,1.3-2.68h0a2.11,2.11,0,0,1,2.68,1.3h0a2.11,2.11,0,0,1-1.3,2.68h0a2.42,2.42,0,0,1-.69.11h0A2.11,2.11,0,0,1,187.78,230.1ZM136.06,227h0a2.1,2.1,0,0,1-.85-2.84h0a2.11,2.11,0,0,1,2.85-.86h0a2.1,2.1,0,0,1,.84,2.86h0a2.08,2.08,0,0,1-1.85,1.09h0A2.08,2.08,0,0,1,136.06,227Zm61.75-1a2.1,2.1,0,0,1,.83-2.85h0a2.09,2.09,0,0,1,2.85.84h0a2.1,2.1,0,0,1-.84,2.86h0a2.14,2.14,0,0,1-1,.25h0A2.11,2.11,0,0,1,197.81,226Zm-71.09-5.14a2.07,2.07,0,0,1-.37-2.95h0a2.1,2.1,0,0,1,2.94-.37h0a2.12,2.12,0,0,1,.37,3h0a2.13,2.13,0,0,1-1.66.8h0A2,2,0,0,1,126.72,220.89Zm80.31-.53a2.09,2.09,0,0,1,.35-2.94h0a2.09,2.09,0,0,1,3,.35h0a2.11,2.11,0,0,1-.36,3h0a2.14,2.14,0,0,1-1.29.44h0A2.07,2.07,0,0,1,207,220.36Zm-88.54-7a2.1,2.1,0,0,1,.13-3h0a2.1,2.1,0,0,1,3,.12h0a2.1,2.1,0,0,1-.13,3h0a2.07,2.07,0,0,1-1.41.55h0A2.1,2.1,0,0,1,118.49,213.33Zm96.7-.07a2.09,2.09,0,0,1-.13-3h0a2.1,2.1,0,0,1,3-.13h0a2.1,2.1,0,0,1,.13,3h0a2.1,2.1,0,0,1-1.54.69h0A2.06,2.06,0,0,1,215.19,213.26Zm-103.56-8.73a2.11,2.11,0,0,1,.6-2.91h0a2.1,2.1,0,0,1,2.91.6h0a2.09,2.09,0,0,1-.6,2.91h0a2,2,0,0,1-1.15.35h0A2.09,2.09,0,0,1,111.63,204.53Zm110.46.38a2.08,2.08,0,0,1-.62-2.9h0a2.09,2.09,0,0,1,2.9-.62h0a2.11,2.11,0,0,1,.62,2.92h0a2.12,2.12,0,0,1-1.77.95h0A2,2,0,0,1,222.09,204.91ZM106.31,194.72a2.1,2.1,0,0,1,1.07-2.77h0a2.09,2.09,0,0,1,2.76,1.08h0a2.1,2.1,0,0,1-1.06,2.77h0a2.39,2.39,0,0,1-.86.17h0A2.09,2.09,0,0,1,106.31,194.72Zm121.21.83a2.09,2.09,0,0,1-1.09-2.77h0a2.09,2.09,0,0,1,2.76-1.08h0a2.1,2.1,0,0,1,1.09,2.76h0a2.1,2.1,0,0,1-1.93,1.27h0A2.21,2.21,0,0,1,227.52,195.55ZM102.68,184.16a2.08,2.08,0,0,1,1.51-2.55h0a2.09,2.09,0,0,1,2.55,1.52h0a2.11,2.11,0,0,1-1.51,2.56h0a2.4,2.4,0,0,1-.52.05h0A2.08,2.08,0,0,1,102.68,184.16Zm128.65,1.25a2.1,2.1,0,0,1-1.54-2.54h0a2.11,2.11,0,0,1,2.55-1.53h0a2.11,2.11,0,0,1,1.53,2.55h0a2.1,2.1,0,0,1-2,1.6h0A2.24,2.24,0,0,1,231.33,185.41ZM100.84,173.15a2.1,2.1,0,0,1,1.92-2.27h0A2.1,2.1,0,0,1,105,172.8h0a2.11,2.11,0,0,1-1.92,2.27h0l-.17,0h0A2.11,2.11,0,0,1,100.84,173.15Zm132.57,1.64a2.09,2.09,0,0,1-1.94-2.25h0a2.11,2.11,0,0,1,2.26-1.94h0a2.11,2.11,0,0,1,1.93,2.26h0a2.1,2.1,0,0,1-2.1,1.94h-.15ZM102.75,164.26a2.09,2.09,0,0,1-1.92-2.27h0a2.08,2.08,0,0,1,2.25-1.92h0a2.1,2.1,0,0,1,1.94,2.27v0a2.11,2.11,0,0,1-2.11,1.94h-.16Zm128.68-2.2a2.11,2.11,0,0,1,1.92-2.27h0a2.09,2.09,0,0,1,2.27,1.92h0a2.11,2.11,0,0,1-1.91,2.27h-.18A2.12,2.12,0,0,1,231.43,162.06Zm-127.27-8.54a2.1,2.1,0,0,1-1.53-2.54h0a2.1,2.1,0,0,1,2.55-1.53h0a2.1,2.1,0,0,1,1.53,2.55h0a2.11,2.11,0,0,1-2,1.59h0A1.77,1.77,0,0,1,104.16,153.52Zm125.53-1.79h0a2.11,2.11,0,0,1,1.52-2.55h0a2.11,2.11,0,0,1,2.56,1.52h0a2.08,2.08,0,0,1-1.51,2.54h0a1.64,1.64,0,0,1-.54.08h0A2.11,2.11,0,0,1,229.69,151.73Zm-122.36-8.56a2.1,2.1,0,0,1-1.08-2.77h0a2.09,2.09,0,0,1,2.76-1.08h0a2.11,2.11,0,0,1,1.09,2.77h0a2.1,2.1,0,0,1-1.93,1.25h0A2.29,2.29,0,0,1,107.33,143.17Zm118.93-1.33h0a2.12,2.12,0,0,1,1.08-2.77h0a2.11,2.11,0,0,1,2.77,1.08h0a2.11,2.11,0,0,1-1.07,2.77h0a2.33,2.33,0,0,1-.84.17h0A2.1,2.1,0,0,1,226.26,141.84Zm-114.09-8.36a2.09,2.09,0,0,1-.61-2.9h0a2.1,2.1,0,0,1,2.9-.62h0a2.1,2.1,0,0,1,.61,2.92h0a2.1,2.1,0,0,1-1.75,1h0A2,2,0,0,1,112.17,133.48Zm109.08-.83a2.1,2.1,0,0,1,.6-2.9h0a2.1,2.1,0,0,1,2.91.59h0a2.09,2.09,0,0,1-.6,2.91h0a2,2,0,0,1-1.15.35h0A2.09,2.09,0,0,1,221.25,132.65Zm-102.72-7.91a2.1,2.1,0,0,1-.12-3h0a2.08,2.08,0,0,1,3-.13h0a2.09,2.09,0,0,1,.12,3h0a2,2,0,0,1-1.54.68h0A2.16,2.16,0,0,1,118.53,124.74Zm96.26-.32h0a2.11,2.11,0,0,1,.11-3h0a2.12,2.12,0,0,1,3,.11h0a2.1,2.1,0,0,1-.12,3h0a2.07,2.07,0,0,1-1.43.56h0A2.13,2.13,0,0,1,214.79,124.42Zm-88.54-7.29a2.1,2.1,0,0,1,.35-2.94h0a2.1,2.1,0,0,1,3,.36h0a2.1,2.1,0,0,1-.36,2.94h0a2,2,0,0,1-1.29.45h0A2.09,2.09,0,0,1,126.25,117.13Zm80.82.21a2.13,2.13,0,0,1-.38-3h0a2.12,2.12,0,0,1,3-.36h0A2.11,2.11,0,0,1,210,117h0a2.07,2.07,0,0,1-1.67.81h0A2.13,2.13,0,0,1,207.07,117.34Zm-72-6.43a2.12,2.12,0,0,1,.86-2.86h0a2.1,2.1,0,0,1,2.84.86h0a2.1,2.1,0,0,1-.84,2.84h0a2.16,2.16,0,0,1-1,.25h0A2.1,2.1,0,0,1,135.09,110.91Zm63.21.71a2.08,2.08,0,0,1-.85-2.84h0a2.08,2.08,0,0,1,2.84-.85h0a2.09,2.09,0,0,1,.85,2.84h0a2.1,2.1,0,0,1-1.86,1.11h0A2.05,2.05,0,0,1,198.3,111.62Zm-53.46-5.39a2.09,2.09,0,0,1,1.31-2.67h0a2.09,2.09,0,0,1,2.67,1.3h0a2.1,2.1,0,0,1-1.3,2.66h0a2.1,2.1,0,0,1-.69.13h0A2.12,2.12,0,0,1,144.84,106.23Zm43.85,1.21h0a2.1,2.1,0,0,1-1.3-2.67h0a2.08,2.08,0,0,1,2.66-1.31h0a2.11,2.11,0,0,1,1.32,2.67h0a2.12,2.12,0,0,1-2,1.42h0A2,2,0,0,1,188.69,107.44Zm-33.44-4.22A2.1,2.1,0,0,1,157,100.8h0a2.08,2.08,0,0,1,2.41,1.72h0a2.08,2.08,0,0,1-1.72,2.42h0a1.9,1.9,0,0,1-.35,0h0A2.09,2.09,0,0,1,155.25,103.22Zm23.28,1.68h0a2.1,2.1,0,0,1-1.74-2.41h0a2.09,2.09,0,0,1,2.41-1.74h0a2.11,2.11,0,0,1,1.74,2.41h0a2.13,2.13,0,0,1-2.08,1.77h0Zm-10.43-.83A2.09,2.09,0,0,1,166,102h0a2.09,2.09,0,0,1,2.1-2.1h0a2.09,2.09,0,0,1,2.1,2.09h0a2.11,2.11,0,0,1-2.1,2.11Z" transform="translate(-0.48 0.34)"/><path d="M166,220.33a2.29,2.29,0,0,1,2.29-2.28h.21a2.27,2.27,0,0,1,2.28,2.27h0a2.26,2.26,0,0,1-2.27,2.28h-.22A2.28,2.28,0,0,1,166,220.33Zm-8.46,1.24a2.3,2.3,0,0,1-1.79-2.68h0a2.27,2.27,0,0,1,2.68-1.79h0a2.27,2.27,0,0,1,1.79,2.67h0a2.28,2.28,0,0,1-2.23,1.84h0A3.58,3.58,0,0,1,157.49,221.57Zm19-1.84a2.27,2.27,0,0,1,1.78-2.67h0a2.27,2.27,0,0,1,2.68,1.77h0a2.27,2.27,0,0,1-1.78,2.68h0a1.86,1.86,0,0,1-.45.06h0A2.28,2.28,0,0,1,176.53,219.73Zm-29.38-1.3a2.28,2.28,0,0,1-1.23-3h0a2.29,2.29,0,0,1,3-1.24h0a2.27,2.27,0,0,1,1.22,3h0a2.24,2.24,0,0,1-2.1,1.42h0A2.22,2.22,0,0,1,147.15,218.43Zm39.4-1.3a2.29,2.29,0,0,1,1.22-3h0a2.27,2.27,0,0,1,3,1.22h0a2.27,2.27,0,0,1-1.22,3h0a2.32,2.32,0,0,1-.88.19h0A2.3,2.3,0,0,1,186.55,217.13Zm-48.92-3.79h0a2.28,2.28,0,0,1-.62-3.16h0a2.26,2.26,0,0,1,3.15-.62h0a2.25,2.25,0,0,1,.63,3.15h0a2.26,2.26,0,0,1-1.89,1h0A2.33,2.33,0,0,1,137.63,213.34Zm58.23-.74a2.29,2.29,0,0,1,.62-3.17h0a2.28,2.28,0,0,1,3.17.62h0a2.27,2.27,0,0,1-.62,3.15h0a2.22,2.22,0,0,1-1.28.39h0A2.32,2.32,0,0,1,195.86,212.6Zm-66.57-6.11h0a2.28,2.28,0,0,1,0-3.22h0a2.26,2.26,0,0,1,3.22,0h0a2.26,2.26,0,0,1,0,3.22h0a2.24,2.24,0,0,1-1.6.66h0A2.28,2.28,0,0,1,129.29,206.49Zm74.84-.15a2.28,2.28,0,0,1,0-3.22h0a2.29,2.29,0,0,1,3.23,0h0a2.28,2.28,0,0,1,0,3.22h0a2.3,2.3,0,0,1-1.62.68h0A2.32,2.32,0,0,1,204.13,206.34Zm-81.7-8.2h0A2.28,2.28,0,0,1,123,195h0a2.29,2.29,0,0,1,3.17.62h0a2.28,2.28,0,0,1-.62,3.16h0a2.3,2.3,0,0,1-1.27.38h0A2.25,2.25,0,0,1,122.43,198.14Zm88.59.45a2.26,2.26,0,0,1-.64-3.15h0a2.29,2.29,0,0,1,3.15-.65h0a2.29,2.29,0,0,1,.64,3.16h0a2.27,2.27,0,0,1-1.9,1h0A2.26,2.26,0,0,1,211,198.59Zm-93.69-10a2.26,2.26,0,0,1,1.22-3h0a2.27,2.27,0,0,1,3,1.22h0a2.28,2.28,0,0,1-1.23,3h0a2.25,2.25,0,0,1-.87.17h0A2.27,2.27,0,0,1,117.33,188.63Zm98.93,1a2.26,2.26,0,0,1-1.23-3h0a2.26,2.26,0,0,1,3-1.23h0a2.27,2.27,0,0,1,1.23,3h0a2.28,2.28,0,0,1-2.11,1.42h0A2.14,2.14,0,0,1,216.26,189.65ZM114.18,178.31v0h0a2.28,2.28,0,0,1,1.79-2.67h0a2.29,2.29,0,0,1,2.68,1.79h0a2.27,2.27,0,0,1-1.78,2.68h0a3.75,3.75,0,0,1-.45,0h0A2.29,2.29,0,0,1,114.18,178.31Zm105.48,1.55a2.27,2.27,0,0,1-1.8-2.66h0a2.26,2.26,0,0,1,2.67-1.79h0a2.27,2.27,0,0,1,1.8,2.66h0a2.28,2.28,0,0,1-2.23,1.85h0A1.67,1.67,0,0,1,219.66,179.86Zm-106.53-12.3a2.27,2.27,0,0,1,2.27-2.28h0a2.28,2.28,0,0,1,2.28,2.27h0a2.28,2.28,0,0,1-2.27,2.28h0A2.28,2.28,0,0,1,113.13,167.56Zm105.67-.22a2.26,2.26,0,0,1,2.27-2.29h0a2.3,2.3,0,0,1,2.28,2.27h0a2.29,2.29,0,0,1-2.27,2.29h0A2.27,2.27,0,0,1,218.8,167.34ZM116,159.48a2.27,2.27,0,0,1-1.8-2.66h0a2.28,2.28,0,0,1,2.68-1.8h0a2.27,2.27,0,0,1,1.79,2.67h0a2.27,2.27,0,0,1-2.22,1.84h0A1.68,1.68,0,0,1,116,159.48Zm101.84-2a2.28,2.28,0,0,1,1.78-2.68h0a2.27,2.27,0,0,1,2.68,1.78h0a2.3,2.3,0,0,1-1.79,2.69h0a2.35,2.35,0,0,1-.45,0h0A2.26,2.26,0,0,1,217.8,157.48Zm-99.28-8a2.29,2.29,0,0,1-1.25-3h0a2.32,2.32,0,0,1,3-1.25h0a2.3,2.3,0,0,1,1.23,3h0a2.31,2.31,0,0,1-2.12,1.4h0A2.38,2.38,0,0,1,118.52,149.45ZM214.9,148a2.27,2.27,0,0,1,1.22-3h0a2.26,2.26,0,0,1,3,1.21h0a2.3,2.3,0,0,1-1.23,3h0a2.36,2.36,0,0,1-.87.17h0A2.27,2.27,0,0,1,214.9,148ZM123,140.1a2.29,2.29,0,0,1-.63-3.16h0a2.28,2.28,0,0,1,3.16-.63h0a2.29,2.29,0,0,1,.64,3.16h0a2.3,2.3,0,0,1-1.91,1h0A2.26,2.26,0,0,1,123,140.1Zm87.2-.81h0a2.25,2.25,0,0,1,.6-3.15h0a2.28,2.28,0,0,1,3.17.62h0a2.27,2.27,0,0,1-.62,3.15h0a2.21,2.21,0,0,1-1.27.39h0A2.29,2.29,0,0,1,210.19,139.29Zm-81-7.48a2.28,2.28,0,0,1,0-3.22h0a2.26,2.26,0,0,1,3.22,0h0a2.29,2.29,0,0,1,0,3.22h0a2.31,2.31,0,0,1-1.61.66h0A2.24,2.24,0,0,1,129.21,131.81Zm74.68-.15a2.28,2.28,0,0,1,0-3.23h0a2.28,2.28,0,0,1,3.22,0h0a2.28,2.28,0,0,1,0,3.22h0a2.28,2.28,0,0,1-1.61.68h0A2.32,2.32,0,0,1,203.89,131.66Zm-67-6.77a2.29,2.29,0,0,1,.62-3.17h0a2.28,2.28,0,0,1,3.16.62h0a2.29,2.29,0,0,1-.62,3.17h0a2.39,2.39,0,0,1-1.28.38h0A2.31,2.31,0,0,1,136.91,124.89Zm59.3.49a2.28,2.28,0,0,1-.63-3.15h0a2.27,2.27,0,0,1,3.15-.63h0a2.27,2.27,0,0,1,.65,3.15h0a2.3,2.3,0,0,1-1.91,1h0A2.3,2.3,0,0,1,196.21,125.38Zm-50.39-5.8a2.26,2.26,0,0,1,1.22-3h0a2.29,2.29,0,0,1,3,1.22h0a2.29,2.29,0,0,1-1.24,3h0a2.16,2.16,0,0,1-.86.17h0A2.27,2.27,0,0,1,145.82,119.58Zm41.65,1.15a2.26,2.26,0,0,1-1.23-3h0a2.26,2.26,0,0,1,3-1.23h0a2.27,2.27,0,0,1,1.23,3h0a2.27,2.27,0,0,1-2.1,1.4h0A2.4,2.4,0,0,1,187.47,120.73Zm-31.88-4.59a2.29,2.29,0,0,1,1.79-2.68h0a2.28,2.28,0,0,1,2.68,1.78h0a2.28,2.28,0,0,1-1.8,2.69h0a2.15,2.15,0,0,1-.45,0h0A2.29,2.29,0,0,1,155.59,116.14Zm22.4,1.75a2.3,2.3,0,0,1-1.8-2.68h0a2.26,2.26,0,0,1,2.67-1.79h0a2.27,2.27,0,0,1,1.79,2.66h0a2.27,2.27,0,0,1-2.22,1.85h0A3.27,3.27,0,0,1,178,117.89Zm-9.86-.94Zm-2.29-2.29a2.27,2.27,0,0,1,2.27-2.26h0a2.26,2.26,0,0,1,2.29,2.26h0a2.29,2.29,0,0,1-2.27,2.29h0A2.28,2.28,0,0,1,165.84,114.66Z" transform="translate(-0.48 0.34)"/><path d="M165.79,207.63a2.45,2.45,0,0,1,2.45-2.45h.15a2.44,2.44,0,0,1,2.45,2.43h0a2.44,2.44,0,0,1-2.44,2.47h-.16A2.44,2.44,0,0,1,165.79,207.63Zm-8.56,1a2.44,2.44,0,0,1-1.74-3h0a2.46,2.46,0,0,1,3-1.74h0a2.46,2.46,0,0,1,1.73,3h0a2.43,2.43,0,0,1-2.36,1.82h0A2.72,2.72,0,0,1,157.23,208.64Zm19.17-1.77a2.47,2.47,0,0,1,1.73-3h0a2.46,2.46,0,0,1,3,1.74h0a2.44,2.44,0,0,1-1.72,3h0a2.54,2.54,0,0,1-.65.09h0A2.46,2.46,0,0,1,176.4,206.87ZM147,204.39h0a2.45,2.45,0,0,1-.9-3.35h0a2.44,2.44,0,0,1,3.35-.89h0a2.46,2.46,0,0,1,.9,3.34h0a2.47,2.47,0,0,1-2.13,1.22h0A2.32,2.32,0,0,1,147,204.39Zm39.35-1a2.48,2.48,0,0,1,.88-3.36h0a2.47,2.47,0,0,1,3.36.89h0a2.47,2.47,0,0,1-.88,3.36h0a2.48,2.48,0,0,1-1.23.32h0A2.47,2.47,0,0,1,186.31,203.42Zm-48.16-5.79a2.44,2.44,0,0,1,0-3.48h0a2.46,2.46,0,0,1,3.46,0h0a2.48,2.48,0,0,1,0,3.48h0a2.49,2.49,0,0,1-1.74.71h0A2.42,2.42,0,0,1,138.15,197.63Zm56.83-.12a2.45,2.45,0,0,1,0-3.46h0a2.46,2.46,0,0,1,3.47,0h0a2.45,2.45,0,0,1,0,3.46h0a2.46,2.46,0,0,1-1.75.73h0A2.44,2.44,0,0,1,195,197.51Zm-63.61-8.7h0a2.45,2.45,0,0,1,.89-3.35h0a2.47,2.47,0,0,1,3.35.9h0a2.45,2.45,0,0,1-.9,3.35h0a2.51,2.51,0,0,1-1.23.34h0A2.44,2.44,0,0,1,131.37,188.81Zm70.47.77a2.46,2.46,0,0,1-.91-3.34h0a2.46,2.46,0,0,1,3.35-.92h0a2.46,2.46,0,0,1,.91,3.35h0a2.48,2.48,0,0,1-2.13,1.24h0A2.54,2.54,0,0,1,201.84,189.58Zm-74.73-11a2.45,2.45,0,0,1,1.72-3h0a2.46,2.46,0,0,1,3,1.73h0a2.45,2.45,0,0,1-1.73,3h0a2.3,2.3,0,0,1-.64.09h0A2.43,2.43,0,0,1,127.11,178.56Zm79.3,1.57a2.44,2.44,0,0,1-1.74-3h0a2.45,2.45,0,0,1,3-1.75h0a2.45,2.45,0,0,1,1.74,3h0a2.45,2.45,0,0,1-2.37,1.82h0A2.72,2.72,0,0,1,206.41,180.13Zm-80.76-12.6a2.45,2.45,0,0,1,2.45-2.45h0a2.45,2.45,0,0,1,2.45,2.45h0A2.44,2.44,0,0,1,128.1,170h0A2.45,2.45,0,0,1,125.65,167.53Zm80.27-.15h0a2.44,2.44,0,0,1,2.44-2.45h0a2.44,2.44,0,0,1,2.46,2.44h0a2.46,2.46,0,0,1-2.45,2.46h0A2.44,2.44,0,0,1,205.92,167.38Zm4.9,0Zm-82-7.85a2.45,2.45,0,0,1-1.74-3h0a2.45,2.45,0,0,1,3-1.73h0a2.44,2.44,0,0,1,1.74,3h0a2.44,2.44,0,0,1-2.36,1.82h0A2.34,2.34,0,0,1,128.82,159.52Zm75.8-1.88h0a2.46,2.46,0,0,1,1.72-3h0a2.45,2.45,0,0,1,3,1.73h0a2.45,2.45,0,0,1-1.72,3h0a2.72,2.72,0,0,1-.63.08h0A2.43,2.43,0,0,1,204.62,157.64Zm-72.4-8a2.45,2.45,0,0,1-.9-3.35h0a2.44,2.44,0,0,1,3.35-.89h0a2.43,2.43,0,0,1,.9,3.35h0a2.46,2.46,0,0,1-2.13,1.22h0A2.38,2.38,0,0,1,132.22,149.6Zm68.6-1h0a2.47,2.47,0,0,1,.88-3.35h0a2.47,2.47,0,0,1,3.37.88h0a2.46,2.46,0,0,1-.9,3.36h0a2.35,2.35,0,0,1-1.22.32h0A2.46,2.46,0,0,1,200.82,148.57Zm-62.73-7.67a2.44,2.44,0,0,1,0-3.47h0a2.47,2.47,0,0,1,3.47,0h0a2.44,2.44,0,0,1,0,3.46h0a2.42,2.42,0,0,1-1.74.73h0A2.44,2.44,0,0,1,138.09,140.9Zm56.72-.11a2.46,2.46,0,0,1,0-3.47h0a2.45,2.45,0,0,1,3.47,0h0a2.46,2.46,0,0,1,0,3.46h0a2.44,2.44,0,0,1-1.74.73h0A2.45,2.45,0,0,1,194.81,140.79ZM146,134a2.46,2.46,0,0,1,.88-3.35h0a2.46,2.46,0,0,1,3.37.9h0a2.45,2.45,0,0,1-.9,3.34h0a2.38,2.38,0,0,1-1.23.34h0A2.48,2.48,0,0,1,146,134Zm41,.82a2.47,2.47,0,0,1-.9-3.36h0a2.47,2.47,0,0,1,3.35-.9h0a2.45,2.45,0,0,1,.89,3.35h0a2.43,2.43,0,0,1-2.13,1.24h0A2.59,2.59,0,0,1,187,134.82Zm-31.59-5.43a2.45,2.45,0,0,1,1.73-3h0a2.44,2.44,0,0,1,3,1.73h0a2.45,2.45,0,0,1-1.72,3h0a2.54,2.54,0,0,1-.65.09h0A2.44,2.44,0,0,1,155.41,129.39Zm22.51,1.68h0a2.44,2.44,0,0,1-1.75-3h0a2.45,2.45,0,0,1,3-1.74h0a2.47,2.47,0,0,1,1.76,3h0a2.48,2.48,0,0,1-2.39,1.82h0A2.43,2.43,0,0,1,177.92,131.07Zm-12.22-3.7a2.45,2.45,0,0,1,2.45-2.45h0a2.45,2.45,0,0,1,2.45,2.45h0a2.44,2.44,0,0,1-2.43,2.45h0A2.46,2.46,0,0,1,165.7,127.37Z" transform="translate(-0.48 0.34)"/><path d="M168.29,197.56h0a2.63,2.63,0,0,1-2.64-2.62h0a2.64,2.64,0,0,1,2.64-2.64h.1a2.61,2.61,0,0,1,2.63,2.62h0a2.64,2.64,0,0,1-2.61,2.64h-.07Zm-11.55-2.29a2.61,2.61,0,0,1-1.42-3.43h0a2.63,2.63,0,0,1,3.43-1.42h0a2.63,2.63,0,0,1,1.42,3.44h0a2.64,2.64,0,0,1-2.42,1.62h0A2.54,2.54,0,0,1,156.74,195.27Zm19.66-1.44a2.64,2.64,0,0,1,1.42-3.45h0a2.62,2.62,0,0,1,3.43,1.42h0a2.62,2.62,0,0,1-1.4,3.43h0a2.7,2.7,0,0,1-1,.21h0A2.67,2.67,0,0,1,176.4,193.83ZM147,188.76a2.63,2.63,0,0,1,0-3.72h0a2.64,2.64,0,0,1,3.72,0h0a2.63,2.63,0,0,1,0,3.72h0a2.61,2.61,0,0,1-1.86.77h0A2.59,2.59,0,0,1,147,188.76Zm38.86-.07a2.63,2.63,0,0,1,0-3.72h0a2.63,2.63,0,0,1,3.72,0h0a2.62,2.62,0,0,1,0,3.71h0a2.59,2.59,0,0,1-1.86.77h0A2.62,2.62,0,0,1,185.85,188.69ZM140.47,179a2.62,2.62,0,0,1,1.42-3.43h0a2.63,2.63,0,0,1,3.43,1.41h0a2.62,2.62,0,0,1-1.42,3.44h0a2.56,2.56,0,0,1-1,.21h0A2.64,2.64,0,0,1,140.47,179Zm52.16,1.32a2.63,2.63,0,0,1-1.45-3.42h0a2.64,2.64,0,0,1,3.44-1.44h0a2.61,2.61,0,0,1,1.42,3.43h0a2.63,2.63,0,0,1-2.42,1.62h0A2.46,2.46,0,0,1,192.63,180.34Zm-54.45-12.81a2.63,2.63,0,0,1,2.63-2.63h0a2.63,2.63,0,0,1,2.62,2.62h0a2.61,2.61,0,0,1-2.62,2.63h0A2.62,2.62,0,0,1,138.18,167.53Zm54.85-.11a2.62,2.62,0,0,1,2.62-2.63h0a2.62,2.62,0,0,1,2.64,2.62h0a2.63,2.63,0,0,1-2.61,2.63h0A2.64,2.64,0,0,1,193,167.42Zm-51.16-8a2.64,2.64,0,0,1-1.43-3.43h0a2.65,2.65,0,0,1,3.44-1.43h0a2.65,2.65,0,0,1,1.43,3.44h0a2.67,2.67,0,0,1-2.43,1.62h0A2.71,2.71,0,0,1,141.87,159.46Zm49.26-1.52h0a2.62,2.62,0,0,1,1.41-3.43h0a2.62,2.62,0,0,1,3.44,1.41h0a2.63,2.63,0,0,1-1.41,3.43h0a2.59,2.59,0,0,1-1,.21h0A2.63,2.63,0,0,1,191.13,157.94ZM147,150a2.63,2.63,0,0,1,0-3.72h0a2.62,2.62,0,0,1,3.71,0h0a2.63,2.63,0,0,1,0,3.71h0a2.63,2.63,0,0,1-1.86.79h0A2.66,2.66,0,0,1,147,150Zm38.77-.09a2.62,2.62,0,0,1,0-3.71h0a2.65,2.65,0,0,1,3.71,0h0a2.65,2.65,0,0,1,0,3.73h0a2.66,2.66,0,0,1-1.87.77h0A2.57,2.57,0,0,1,185.73,149.91Zm-30.47-6.72a2.65,2.65,0,0,1,1.42-3.45h0a2.63,2.63,0,0,1,3.43,1.41h0a2.64,2.64,0,0,1-1.41,3.45h0a2.71,2.71,0,0,1-1,.2h0A2.66,2.66,0,0,1,155.26,143.19Zm22.42,1.37a2.62,2.62,0,0,1-1.43-3.43h0a2.62,2.62,0,0,1,3.42-1.43h0a2.62,2.62,0,0,1,1.43,3.43h0a2.62,2.62,0,0,1-2.43,1.63h0A2.65,2.65,0,0,1,177.68,144.56Zm-12.13-4.48a2.63,2.63,0,0,1,2.62-2.64h0a2.63,2.63,0,0,1,2.63,2.62h0a2.62,2.62,0,0,1-2.62,2.64h0A2.64,2.64,0,0,1,165.55,140.08Z" transform="translate(-0.48 0.34)"/><path d="M168.27,185h0a2.8,2.8,0,0,1-2.8-2.8h0a2.79,2.79,0,0,1,2.69-2.8h.15a2.78,2.78,0,0,1,2.82,2.79h0a2.8,2.8,0,0,1-2.79,2.81h0Zm-11.3-4.1h0a2.79,2.79,0,0,1-.35-3.94h0a2.8,2.8,0,0,1,3.95-.35h0a2.8,2.8,0,0,1,.35,4h0a2.8,2.8,0,0,1-2.15,1h0A2.79,2.79,0,0,1,157,180.93Zm18.64-.37a2.8,2.8,0,0,1,.32-3.95h0a2.8,2.8,0,0,1,3.95.32h0a2.82,2.82,0,0,1-.32,3.95h0a2.81,2.81,0,0,1-1.81.66h0A2.8,2.8,0,0,1,175.61,180.56Zm-24.63-10a2.79,2.79,0,0,1,2.27-3.25h0a2.8,2.8,0,0,1,3.23,2.27h0a2.79,2.79,0,0,1-2.27,3.25h0a2.63,2.63,0,0,1-.49,0h0A2.78,2.78,0,0,1,151,170.56Zm31.29,2.21a2.79,2.79,0,0,1-2.28-3.23h0a2.8,2.8,0,0,1,3.24-2.29h0a2.8,2.8,0,0,1,2.28,3.24h0a2.81,2.81,0,0,1-2.76,2.34h0A2.8,2.8,0,0,1,182.27,172.77Zm-28.2-10.2a2.79,2.79,0,0,1-1-3.82h0a2.79,2.79,0,0,1,3.82-1h0a2.79,2.79,0,0,1,1,3.82h0a2.81,2.81,0,0,1-2.44,1.4h0A2.72,2.72,0,0,1,154.07,162.57Zm24.48-1.06h0a2.81,2.81,0,0,1,1-3.84h0a2.81,2.81,0,0,1,3.83,1h0a2.81,2.81,0,0,1-1,3.83h0a2.73,2.73,0,0,1-1.42.38h0A2.77,2.77,0,0,1,178.55,161.51Zm-18-6.88a2.8,2.8,0,0,1,1.66-3.6h0a2.79,2.79,0,0,1,3.59,1.67h0a2.8,2.8,0,0,1-1.67,3.6h0a2.89,2.89,0,0,1-.95.17h0A2.77,2.77,0,0,1,160.55,154.63Zm11.74,1.64a2.81,2.81,0,0,1-1.69-3.59h0a2.8,2.8,0,0,1,3.59-1.66h0a2.79,2.79,0,0,1,1.68,3.58h0a2.78,2.78,0,0,1-2.63,1.85h0A2.5,2.5,0,0,1,172.29,156.27Z" transform="translate(-0.48 0.34)"/></svg>