<svg xmlns="http://www.w3.org/2000/svg" viewBox="0 0 175.46 184.53"><line x1="46.98" y1="148.32" x2="54.16" y2="155.5" style="fill:none;stroke:#010101;stroke-linecap:round;stroke-linejoin:round;stroke-width:1.15334px"/><line x1="22.33" y1="123.67" x2="35.53" y2="136.87" style="fill:none;stroke:#010101;stroke-linecap:round;stroke-linejoin:round;stroke-width:1.15334px"/><line x1="44.7" y1="125.26" x2="94.4" y2="174.97" style="fill:none;stroke:#010101;stroke-linecap:round;stroke-linejoin:round;stroke-width:1.15334px"/><line x1="19.35" y1="99.92" x2="29.43" y2="110" style="fill:none;stroke:#010101;stroke-linecap:round;stroke-linejoin:round;stroke-width:1.15334px"/><line x1="80.42" y1="140.21" x2="124.16" y2="183.95" style="fill:none;stroke:#ffaf00;stroke-linecap:round;stroke-linejoin:round;stroke-width:1.15334px"/><line x1="14.43" y1="74.22" x2="61.06" y2="120.86" style="fill:none;stroke:#ffaf00;stroke-linecap:round;stroke-linejoin:round;stroke-width:1.15334px"/><line x1="50.99" y1="90.01" x2="128.19" y2="167.21" style="fill:none;stroke:#010101;stroke-linecap:round;stroke-linejoin:round;stroke-width:1.15334px"/><line x1="19.07" y1="58.09" x2="35.41" y2="74.43" style="fill:none;stroke:#010101;stroke-linecap:round;stroke-linejoin:round;stroke-width:1.15334px"/><line x1="114.73" y1="132.97" x2="133.28" y2="151.53" style="fill:none;stroke:#010101;stroke-linecap:round;stroke-linejoin:round;stroke-width:1.15334px"/><line x1="0.58" y1="18.82" x2="95.21" y2="113.46" style="fill:none;stroke:#010101;stroke-linecap:round;stroke-linejoin:round;stroke-width:1.15334px"/><line x1="76.49" y1="73.96" x2="168.94" y2="166.41" style="fill:none;stroke:#ffaf00;stroke-linecap:round;stroke-linejoin:round;stroke-width:1.15334px"/><line x1="35.65" y1="33.12" x2="57.13" y2="54.6" style="fill:none;stroke:#ffaf00;stroke-linecap:round;stroke-linejoin:round;stroke-width:1.15334px"/><line x1="94.43" y1="71.12" x2="154.15" y2="130.85" style="fill:none;stroke:#010101;stroke-linecap:round;stroke-linejoin:round;stroke-width:1.15334px"/><line x1="33.46" y1="10.15" x2="77.59" y2="54.28" style="fill:none;stroke:#010101;stroke-linecap:round;stroke-linejoin:round;stroke-width:1.15334px"/><line x1="143.69" y1="99.61" x2="174.88" y2="130.8" style="fill:none;stroke:#ffaf00;stroke-linecap:round;stroke-linejoin:round;stroke-width:1.15334px"/><line x1="60.42" y1="16.35" x2="121.02" y2="76.95" style="fill:none;stroke:#ffaf00;stroke-linecap:round;stroke-linejoin:round;stroke-width:1.15334px"/><line x1="113.47" y1="48.62" x2="155.61" y2="90.76" style="fill:none;stroke:#010101;stroke-linecap:round;stroke-linejoin:round;stroke-width:1.15334px"/><line x1="65.43" y1="0.58" x2="96.94" y2="32.09" style="fill:none;stroke:#010101;stroke-linecap:round;stroke-linejoin:round;stroke-width:1.15334px"/><line x1="150.93" y1="65.3" x2="167.32" y2="81.7" style="fill:none;stroke:#ffaf00;stroke-linecap:round;stroke-linejoin:round;stroke-width:1.15334px"/><line x1="90.64" y1="5.02" x2="132.2" y2="46.57" style="fill:none;stroke:#ffaf00;stroke-linecap:round;stroke-linejoin:round;stroke-width:1.15334px"/><line x1="142.41" y1="36.01" x2="152.48" y2="46.08" style="fill:none;stroke:#010101;stroke-linecap:round;stroke-linejoin:round;stroke-width:1.15334px"/><line x1="124.72" y1="18.32" x2="131.67" y2="25.27" style="fill:none;stroke:#010101;stroke-linecap:round;stroke-linejoin:round;stroke-width:1.15334px"/></svg>